M48
; DRILL file {KiCad 9.0.7} date 2026-02-17T15:39:37+1000
; FORMAT={-:-/ absolute / metric / decimal}
; #@! TF.CreationDate,2026-02-17T15:39:37+10:00
; #@! TF.GenerationSoftware,Kicad,Pcbnew,9.0.7
; #@! TF.FileFunction,Plated,1,2,PTH
FMAT,2
METRIC
; #@! TA.AperFunction,Plated,PTH,ViaDrill
T1C0.300
; #@! TA.AperFunction,Plated,PTH,ComponentDrill
T2C0.600
; #@! TA.AperFunction,Plated,PTH,ComponentDrill
T3C0.810
; #@! TA.AperFunction,Plated,PTH,ComponentDrill
T4C0.864
; #@! TA.AperFunction,Plated,PTH,ComponentDrill
T5C0.900
; #@! TA.AperFunction,Plated,PTH,ComponentDrill
T6C0.950
; #@! TA.AperFunction,Plated,PTH,ComponentDrill
T7C1.000
; #@! TA.AperFunction,Plated,PTH,ComponentDrill
T8C1.100
; #@! TA.AperFunction,Plated,PTH,ComponentDrill
T9C1.600
; #@! TA.AperFunction,Plated,PTH,ComponentDrill
T10C1.850
; #@! TA.AperFunction,Plated,PTH,ComponentDrill
T11C2.700
%
G90
G05
T1
X101.092Y-79.248
X101.092Y-84.836
X111.373Y-70.44
X112.0Y-55.79
X112.373Y-75.52
X113.0Y-65.0
X113.0Y-78.0
X114.3Y-57.912
X115.316Y-60.452
X116.84Y-97.028
X117.348Y-52.832
X118.364Y-50.292
X118.364Y-97.028
X119.888Y-96.52
X120.396Y-47.244
X120.904Y-95.504
X121.024Y-46.736
X125.0Y-73.0
X128.0Y-63.0
X130.556Y-65.532
X134.112Y-85.852
X134.62Y-79.248
X136.0Y-74.893
X136.0Y-83.0
T3
X178.0Y-108.46
X178.0Y-113.54
T4
X166.0Y-108.5
X166.0Y-113.5
T5
X89.46Y-55.79
X89.46Y-64.98
X89.46Y-74.84
X89.46Y-85.0
X92.0Y-55.79
X92.0Y-64.98
X92.0Y-74.84
X92.0Y-85.0
T6
X107.72Y-82.975
X110.22Y-82.975
X112.72Y-82.975
X115.22Y-82.975
X123.0Y-82.975
X125.5Y-82.975
X128.0Y-82.975
X130.5Y-82.975
T7
X91.27Y-105.36
X91.27Y-107.9
X91.27Y-110.44
X91.27Y-112.98
X91.27Y-115.52
X91.27Y-118.06
X141.41Y-37.42
X141.41Y-39.96
X141.41Y-42.5
X141.41Y-45.04
X141.41Y-47.58
X141.41Y-50.12
X141.41Y-52.66
X141.41Y-55.2
X141.41Y-57.74
X141.41Y-60.28
X141.41Y-62.82
X141.41Y-65.36
X141.41Y-67.9
X141.41Y-70.44
X141.41Y-72.98
X141.41Y-75.52
X141.41Y-78.06
X141.41Y-80.6
X141.41Y-83.14
X141.41Y-85.68
X145.22Y-37.42
X145.22Y-39.96
X145.22Y-42.5
X145.22Y-45.04
X145.22Y-47.58
X145.22Y-50.12
X145.22Y-52.66
X145.22Y-55.2
X145.22Y-57.74
X145.22Y-60.28
X145.22Y-62.82
X145.22Y-65.36
X145.22Y-67.9
X145.22Y-70.44
X145.22Y-72.98
X145.22Y-75.52
X145.22Y-78.06
X145.22Y-80.6
X145.22Y-83.14
X145.22Y-85.68
X163.0Y-37.42
X163.0Y-39.96
X163.0Y-42.5
X163.0Y-45.04
X163.0Y-47.58
X163.0Y-50.12
X163.0Y-52.66
X163.0Y-55.2
X163.0Y-57.74
X163.0Y-60.28
X163.0Y-62.82
X163.0Y-65.36
X163.0Y-67.9
X163.0Y-70.44
X163.0Y-72.98
X163.0Y-75.52
X163.0Y-78.06
X163.0Y-80.6
X163.0Y-83.14
X163.0Y-85.68
X166.81Y-37.42
X166.81Y-39.96
X166.81Y-42.5
X166.81Y-45.04
X166.81Y-47.58
X166.81Y-50.12
X166.81Y-52.66
X166.81Y-55.2
X166.81Y-57.74
X166.81Y-60.28
X166.81Y-62.82
X166.81Y-65.36
X166.81Y-67.9
X166.81Y-70.44
X166.81Y-72.98
X166.81Y-75.52
X166.81Y-78.06
X166.81Y-80.6
X166.81Y-83.14
X166.81Y-85.68
X195.42Y-69.06
X195.42Y-75.41
X195.42Y-81.76
X195.42Y-90.65
X195.42Y-97.0
X197.96Y-69.06
X197.96Y-75.41
X197.96Y-81.76
X197.96Y-90.65
X197.96Y-97.0
X198.475Y-51.25
X198.475Y-53.75
X200.5Y-69.06
X200.5Y-75.41
X200.5Y-81.76
X200.5Y-90.65
X200.5Y-97.0
T8
X104.75Y-38.75
X104.75Y-43.25
X111.25Y-38.75
X111.25Y-43.25
X118.75Y-38.75
X118.75Y-43.25
X125.25Y-38.75
X125.25Y-43.25
T9
X151.857Y-108.66
X151.857Y-113.74
X173.265Y-120.3
X173.265Y-123.7
X186.735Y-120.3
X186.735Y-123.7
T10
X148.3Y-122.0
X153.0Y-122.0
X157.7Y-122.0
X176.3Y-39.5
X181.0Y-39.5
X185.7Y-39.5
T11
X188.43Y-106.128
X188.43Y-113.328
T2
G00X194.98Y-102.978
M15
G01X193.88Y-102.978
M16
G05
G00X194.98Y-116.478
M15
G01X193.88Y-116.478
M16
G05
M30
