%TF.GenerationSoftware,KiCad,Pcbnew,9.0.7*%
%TF.CreationDate,2026-02-17T15:39:40+10:00*%
%TF.ProjectId,DRC 2026,44524320-3230-4323-962e-6b696361645f,rev?*%
%TF.SameCoordinates,Original*%
%TF.FileFunction,Legend,Top*%
%TF.FilePolarity,Positive*%
%FSLAX46Y46*%
G04 Gerber Fmt 4.6, Leading zero omitted, Abs format (unit mm)*
G04 Created by KiCad (PCBNEW 9.0.7) date 2026-02-17 15:39:40*
%MOMM*%
%LPD*%
G01*
G04 APERTURE LIST*
%ADD10C,0.500000*%
%ADD11C,0.152400*%
%ADD12C,0.150000*%
%ADD13C,0.100000*%
%ADD14C,0.120000*%
%ADD15C,0.127000*%
%ADD16C,0.200000*%
%ADD17C,0.101600*%
%ADD18C,0.203200*%
G04 APERTURE END LIST*
D10*
G36*
X107731681Y-58568429D02*
G01*
X107731681Y-62320000D01*
X106507780Y-62320000D01*
X106436706Y-62320000D01*
X106343053Y-62309263D01*
X106279902Y-62281165D01*
X106238192Y-62234378D01*
X106223970Y-62169790D01*
X106237024Y-62099394D01*
X106273945Y-62049205D01*
X106338764Y-62014452D01*
X106442323Y-61978304D01*
X106471632Y-61948750D01*
X106493815Y-61899282D01*
X106502896Y-61813684D01*
X106502896Y-59073035D01*
X106493827Y-58987869D01*
X106471632Y-58938457D01*
X106442323Y-58909148D01*
X106338764Y-58873000D01*
X106273904Y-58838268D01*
X106237003Y-58788224D01*
X106223970Y-58718150D01*
X106238187Y-58653819D01*
X106279902Y-58607264D01*
X106343053Y-58579166D01*
X106436706Y-58568429D01*
X106507780Y-58568429D01*
X107731681Y-58568429D01*
G37*
G36*
X108268039Y-61528897D02*
G01*
X108268039Y-59368569D01*
X108252223Y-59182437D01*
X108211374Y-59054961D01*
X108171080Y-58988216D01*
X108126133Y-58945785D01*
X108066480Y-58916274D01*
X107959071Y-58885945D01*
X107959071Y-58568429D01*
X108213572Y-58579420D01*
X108438230Y-58627708D01*
X108662492Y-58724826D01*
X108889881Y-58876664D01*
X109086310Y-59059210D01*
X109245993Y-59275071D01*
X109370551Y-59528548D01*
X109459027Y-59803808D01*
X109513499Y-60102797D01*
X109532240Y-60429071D01*
X109508124Y-60797850D01*
X109438605Y-61127886D01*
X109326343Y-61424849D01*
X109167445Y-61697426D01*
X108971518Y-61924436D01*
X108736252Y-62110683D01*
X108549322Y-62215688D01*
X108388450Y-62276036D01*
X108213962Y-62307589D01*
X107959071Y-62320000D01*
X107959071Y-62010300D01*
X108122470Y-61955101D01*
X108198185Y-61880607D01*
X108253140Y-61747494D01*
X108268039Y-61528897D01*
G37*
G36*
X111362107Y-58568429D02*
G01*
X111362107Y-61791702D01*
X111373471Y-61886155D01*
X111401430Y-61939958D01*
X111439532Y-61972198D01*
X111563852Y-62005903D01*
X111642381Y-62039303D01*
X111685716Y-62090500D01*
X111700872Y-62164173D01*
X111682932Y-62231210D01*
X111626133Y-62285806D01*
X111562775Y-62309887D01*
X111449790Y-62320000D01*
X111356978Y-62320000D01*
X110138206Y-62320000D01*
X110067131Y-62320000D01*
X109973479Y-62309263D01*
X109910327Y-62281165D01*
X109868618Y-62234378D01*
X109854396Y-62169790D01*
X109867450Y-62099394D01*
X109904371Y-62049205D01*
X109969190Y-62014452D01*
X110072749Y-61978304D01*
X110102058Y-61948750D01*
X110124241Y-61899282D01*
X110133321Y-61813684D01*
X110133321Y-59073035D01*
X110124253Y-58987869D01*
X110102058Y-58938457D01*
X110072749Y-58909148D01*
X109969190Y-58873000D01*
X109904330Y-58838268D01*
X109867429Y-58788224D01*
X109854396Y-58718150D01*
X109868613Y-58653819D01*
X109910327Y-58607264D01*
X109973479Y-58579166D01*
X110067131Y-58568429D01*
X110138206Y-58568429D01*
X111362107Y-58568429D01*
G37*
G36*
X112228681Y-60477187D02*
G01*
X112435579Y-60516039D01*
X112582344Y-60557299D01*
X112712957Y-60612787D01*
X112829030Y-60684305D01*
X112932569Y-60779537D01*
X113007571Y-60889713D01*
X113054321Y-61012783D01*
X113069853Y-61142505D01*
X113069853Y-61709637D01*
X113084200Y-61771683D01*
X113119434Y-61788527D01*
X113151919Y-61777292D01*
X113192219Y-61730397D01*
X113268890Y-61653633D01*
X113338032Y-61632212D01*
X113385193Y-61644056D01*
X113436461Y-61684480D01*
X113473836Y-61738779D01*
X113485066Y-61789504D01*
X113467404Y-61879609D01*
X113403489Y-62002484D01*
X113312560Y-62119738D01*
X113200767Y-62224745D01*
X113081865Y-62304562D01*
X112955059Y-62357613D01*
X112816243Y-62387335D01*
X112643893Y-62398157D01*
X112409999Y-62372709D01*
X112224165Y-62301731D01*
X112075540Y-62187864D01*
X111965358Y-62035888D01*
X111896072Y-61844575D01*
X111871109Y-61602658D01*
X111871109Y-61142505D01*
X111868422Y-60965429D01*
X111842601Y-60864374D01*
X111793684Y-60780293D01*
X111701324Y-60707637D01*
X111565073Y-60670139D01*
X111565073Y-60363126D01*
X111703223Y-60329666D01*
X111778053Y-60287411D01*
X111823271Y-60235490D01*
X111851081Y-60178234D01*
X111871109Y-59994563D01*
X111871109Y-59270383D01*
X111852609Y-59114732D01*
X111805652Y-59018325D01*
X111721219Y-58948752D01*
X111562386Y-58885457D01*
X111562386Y-58568429D01*
X111641277Y-58568429D01*
X112158339Y-58590411D01*
X112365326Y-58627622D01*
X112554131Y-58697266D01*
X112727913Y-58799727D01*
X112885960Y-58941717D01*
X112996970Y-59107317D01*
X113065040Y-59301134D01*
X113088904Y-59530746D01*
X113060570Y-59779887D01*
X112979523Y-59989243D01*
X112846127Y-60167732D01*
X112736171Y-60262685D01*
X112607990Y-60338946D01*
X112457439Y-60401962D01*
X112228681Y-60477187D01*
G37*
G36*
X115288799Y-58495157D02*
G01*
X115288799Y-58839539D01*
X115143220Y-58888976D01*
X115046755Y-58979734D01*
X114990844Y-59110208D01*
X114969085Y-59310439D01*
X114969085Y-61572372D01*
X114969085Y-61690097D01*
X114994487Y-61820279D01*
X115060188Y-61937271D01*
X115150558Y-62013475D01*
X115288799Y-62044738D01*
X115288799Y-62394005D01*
X115020934Y-62375659D01*
X114778626Y-62322478D01*
X114557976Y-62236000D01*
X114355792Y-62116057D01*
X114145175Y-61935343D01*
X113971801Y-61717347D01*
X113833845Y-61457334D01*
X113739239Y-61176188D01*
X113679366Y-60851983D01*
X113658234Y-60477676D01*
X113687372Y-60072377D01*
X113772051Y-59704403D01*
X113861065Y-59471997D01*
X113971291Y-59265357D01*
X114102512Y-59081828D01*
X114258665Y-58915480D01*
X114433453Y-58772819D01*
X114628367Y-58652693D01*
X114837196Y-58559894D01*
X115032839Y-58507205D01*
X115218457Y-58490272D01*
X115288799Y-58495157D01*
G37*
G36*
X115488834Y-58842470D02*
G01*
X115488834Y-58495889D01*
X115715980Y-58543517D01*
X116018597Y-58645610D01*
X116201535Y-58693482D01*
X116267646Y-58677820D01*
X116315352Y-58631200D01*
X116350523Y-58570628D01*
X116398168Y-58523261D01*
X116480460Y-58505903D01*
X116550731Y-58517433D01*
X116599406Y-58549134D01*
X116629849Y-58599555D01*
X116641172Y-58674675D01*
X116641172Y-59811137D01*
X116626791Y-59910884D01*
X116589637Y-59971849D01*
X116533831Y-60009869D01*
X116472156Y-60022163D01*
X116408994Y-60010731D01*
X116361514Y-59977955D01*
X116326523Y-59925201D01*
X116295080Y-59836538D01*
X116183705Y-59500216D01*
X116054167Y-59260508D01*
X115917236Y-59083293D01*
X115813730Y-58985113D01*
X115716713Y-58917452D01*
X115611362Y-58870282D01*
X115488834Y-58842470D01*
G37*
G36*
X115497138Y-62394494D02*
G01*
X115497138Y-62044494D01*
X115712927Y-61997821D01*
X115948988Y-61882316D01*
X116065096Y-61791051D01*
X116170760Y-61670314D01*
X116256125Y-61531091D01*
X116317062Y-61378688D01*
X116350204Y-61296519D01*
X116383740Y-61249239D01*
X116427767Y-61220283D01*
X116485833Y-61210160D01*
X116549124Y-61223153D01*
X116600872Y-61262184D01*
X116634986Y-61319652D01*
X116646789Y-61391632D01*
X116625915Y-61520981D01*
X116551779Y-61695226D01*
X116444120Y-61864937D01*
X116308513Y-62022512D01*
X116119864Y-62185378D01*
X115935799Y-62294354D01*
X115734922Y-62362703D01*
X115497138Y-62394494D01*
G37*
G36*
X118035066Y-58528374D02*
G01*
X118035066Y-58833677D01*
X117908548Y-58879839D01*
X117873049Y-58910419D01*
X117865561Y-58933572D01*
X117881951Y-58966116D01*
X117935903Y-59010509D01*
X118046375Y-59103853D01*
X118115910Y-59197599D01*
X118156919Y-59305361D01*
X118171598Y-59440376D01*
X118153909Y-59575351D01*
X118101634Y-59695924D01*
X118012107Y-59806252D01*
X117898360Y-59892108D01*
X117774459Y-59942545D01*
X117636461Y-59959637D01*
X117486218Y-59941081D01*
X117356659Y-59887195D01*
X117242742Y-59796727D01*
X117155336Y-59680020D01*
X117102861Y-59546717D01*
X117084717Y-59391772D01*
X117099736Y-59244186D01*
X117144689Y-59103662D01*
X117221249Y-58967522D01*
X117321856Y-58846808D01*
X117444556Y-58743574D01*
X117592009Y-58657090D01*
X117760096Y-58594010D01*
X118035066Y-58528374D01*
G37*
G36*
X118259769Y-58831967D02*
G01*
X118259769Y-58522023D01*
X118341346Y-58521535D01*
X118621632Y-58545482D01*
X118886496Y-58616545D01*
X119128188Y-58731833D01*
X119319539Y-58879351D01*
X119447153Y-59030417D01*
X119537468Y-59197826D01*
X119592592Y-59384928D01*
X119611653Y-59596448D01*
X119586915Y-59837056D01*
X119514301Y-60055166D01*
X119392812Y-60256147D01*
X119231925Y-60429533D01*
X119027782Y-60579605D01*
X118773412Y-60706287D01*
X118415352Y-60848436D01*
X117976448Y-61067034D01*
X117892428Y-61114417D01*
X117681891Y-61142993D01*
X117363886Y-61265359D01*
X117580286Y-61014033D01*
X117880216Y-60761486D01*
X118224842Y-60473768D01*
X118306209Y-60378971D01*
X118375540Y-60268604D01*
X118428039Y-60142346D01*
X118466154Y-59987480D01*
X118486803Y-59814827D01*
X118494731Y-59577152D01*
X118483310Y-59281384D01*
X118455425Y-59096498D01*
X118419016Y-58989504D01*
X118356245Y-58898401D01*
X118259769Y-58831967D01*
G37*
G36*
X119581367Y-61085108D02*
G01*
X119639643Y-61096422D01*
X119687369Y-61137131D01*
X119718025Y-61197909D01*
X119729134Y-61279769D01*
X119705915Y-61474118D01*
X119628750Y-61707194D01*
X119514637Y-61926037D01*
X119388171Y-62086992D01*
X119254480Y-62198591D01*
X119087752Y-62289469D01*
X118909220Y-62348486D01*
X118748499Y-62366894D01*
X118554456Y-62351204D01*
X118341835Y-62301681D01*
X117981088Y-62191284D01*
X117703466Y-62117311D01*
X117589811Y-62101158D01*
X117475458Y-62126719D01*
X117340928Y-62214975D01*
X117256170Y-62274462D01*
X117207327Y-62288736D01*
X117147307Y-62277461D01*
X117104501Y-62245505D01*
X117078210Y-62195766D01*
X117068353Y-62122651D01*
X117085046Y-61974473D01*
X117137229Y-61819057D01*
X117218792Y-61674074D01*
X117324808Y-61549169D01*
X117457112Y-61444729D01*
X117611924Y-61368617D01*
X117793616Y-61320842D01*
X118007955Y-61303949D01*
X118224527Y-61317651D01*
X118547732Y-61367208D01*
X119000376Y-61443254D01*
X119191311Y-61460265D01*
X119306911Y-61442810D01*
X119379378Y-61397006D01*
X119412107Y-61343028D01*
X119443126Y-61230921D01*
X119475258Y-61147720D01*
X119520673Y-61102473D01*
X119581367Y-61085108D01*
G37*
G36*
X121551674Y-62367627D02*
G01*
X121267914Y-62306431D01*
X121030460Y-62202763D01*
X120819114Y-62050465D01*
X120614026Y-61832735D01*
X120486094Y-61649392D01*
X120379051Y-61444159D01*
X120293091Y-61214556D01*
X120211643Y-60850055D01*
X120183426Y-60442993D01*
X120211601Y-60038318D01*
X120293091Y-59674361D01*
X120379061Y-59444598D01*
X120486106Y-59239288D01*
X120614026Y-59055938D01*
X120819114Y-58838208D01*
X121030460Y-58685910D01*
X121267914Y-58582242D01*
X121551674Y-58521046D01*
X121551674Y-58819267D01*
X121441521Y-58862498D01*
X121386078Y-58914033D01*
X121329947Y-59027720D01*
X121308408Y-59201263D01*
X121308408Y-61684724D01*
X121329968Y-61859163D01*
X121386078Y-61973175D01*
X121441521Y-62025198D01*
X121551674Y-62068429D01*
X121551674Y-62367627D01*
G37*
G36*
X121746580Y-62367627D02*
G01*
X121746580Y-62068429D01*
X121856489Y-62025198D01*
X121912177Y-61973175D01*
X121968103Y-61859186D01*
X121989602Y-61684724D01*
X121989602Y-59201263D01*
X121968124Y-59027697D01*
X121912177Y-58914033D01*
X121856489Y-58862498D01*
X121746580Y-58819267D01*
X121746580Y-58521046D01*
X122030340Y-58582242D01*
X122267794Y-58685910D01*
X122479096Y-58838220D01*
X122683984Y-59055938D01*
X122811904Y-59239288D01*
X122918949Y-59444598D01*
X123004919Y-59674361D01*
X123086409Y-60038318D01*
X123114584Y-60442993D01*
X123086368Y-60850055D01*
X123004919Y-61214556D01*
X122918959Y-61444159D01*
X122811916Y-61649392D01*
X122683984Y-61832735D01*
X122479096Y-62050453D01*
X122267794Y-62202763D01*
X122030340Y-62306431D01*
X121746580Y-62367627D01*
G37*
G36*
X124463538Y-58528374D02*
G01*
X124463538Y-58833677D01*
X124337020Y-58879839D01*
X124301521Y-58910419D01*
X124294033Y-58933572D01*
X124310423Y-58966116D01*
X124364375Y-59010509D01*
X124474846Y-59103853D01*
X124544382Y-59197599D01*
X124585391Y-59305361D01*
X124600069Y-59440376D01*
X124582381Y-59575351D01*
X124530105Y-59695924D01*
X124440579Y-59806252D01*
X124326832Y-59892108D01*
X124202931Y-59942545D01*
X124064933Y-59959637D01*
X123914689Y-59941081D01*
X123785131Y-59887195D01*
X123671214Y-59796727D01*
X123583808Y-59680020D01*
X123531332Y-59546717D01*
X123513189Y-59391772D01*
X123528208Y-59244186D01*
X123573161Y-59103662D01*
X123649720Y-58967522D01*
X123750328Y-58846808D01*
X123873028Y-58743574D01*
X124020481Y-58657090D01*
X124188568Y-58594010D01*
X124463538Y-58528374D01*
G37*
G36*
X124688241Y-58831967D02*
G01*
X124688241Y-58522023D01*
X124769818Y-58521535D01*
X125050104Y-58545482D01*
X125314968Y-58616545D01*
X125556660Y-58731833D01*
X125748011Y-58879351D01*
X125875625Y-59030417D01*
X125965940Y-59197826D01*
X126021063Y-59384928D01*
X126040125Y-59596448D01*
X126015387Y-59837056D01*
X125942773Y-60055166D01*
X125821284Y-60256147D01*
X125660396Y-60429533D01*
X125456253Y-60579605D01*
X125201884Y-60706287D01*
X124843824Y-60848436D01*
X124404919Y-61067034D01*
X124320900Y-61114417D01*
X124110362Y-61142993D01*
X123792358Y-61265359D01*
X124008757Y-61014033D01*
X124308688Y-60761486D01*
X124653314Y-60473768D01*
X124734681Y-60378971D01*
X124804012Y-60268604D01*
X124856510Y-60142346D01*
X124894626Y-59987480D01*
X124915275Y-59814827D01*
X124923203Y-59577152D01*
X124911781Y-59281384D01*
X124883897Y-59096498D01*
X124847487Y-58989504D01*
X124784717Y-58898401D01*
X124688241Y-58831967D01*
G37*
G36*
X126009839Y-61085108D02*
G01*
X126068115Y-61096422D01*
X126115840Y-61137131D01*
X126146497Y-61197909D01*
X126157606Y-61279769D01*
X126134386Y-61474118D01*
X126057222Y-61707194D01*
X125943109Y-61926037D01*
X125816643Y-62086992D01*
X125682951Y-62198591D01*
X125516224Y-62289469D01*
X125337692Y-62348486D01*
X125176971Y-62366894D01*
X124982928Y-62351204D01*
X124770307Y-62301681D01*
X124409560Y-62191284D01*
X124131937Y-62117311D01*
X124018283Y-62101158D01*
X123903930Y-62126719D01*
X123769399Y-62214975D01*
X123684642Y-62274462D01*
X123635799Y-62288736D01*
X123575779Y-62277461D01*
X123532972Y-62245505D01*
X123506682Y-62195766D01*
X123496824Y-62122651D01*
X123513518Y-61974473D01*
X123565701Y-61819057D01*
X123647264Y-61674074D01*
X123753279Y-61549169D01*
X123885584Y-61444729D01*
X124040396Y-61368617D01*
X124222088Y-61320842D01*
X124436427Y-61303949D01*
X124652998Y-61317651D01*
X124976203Y-61367208D01*
X125428847Y-61443254D01*
X125619783Y-61460265D01*
X125735383Y-61442810D01*
X125807850Y-61397006D01*
X125840579Y-61343028D01*
X125871598Y-61230921D01*
X125903730Y-61147720D01*
X125949144Y-61102473D01*
X126009839Y-61085108D01*
G37*
G36*
X128089567Y-58522023D02*
G01*
X128089567Y-58811451D01*
X127953640Y-58872618D01*
X127873656Y-58947983D01*
X127828313Y-59049114D01*
X127810886Y-59201263D01*
X127810886Y-61709637D01*
X127818702Y-61889644D01*
X127855582Y-61975617D01*
X127912218Y-62021850D01*
X128026552Y-62064766D01*
X128026552Y-62367627D01*
X127763197Y-62311816D01*
X127522923Y-62208381D01*
X127306279Y-62059470D01*
X127110886Y-61862777D01*
X126989606Y-61691460D01*
X126884428Y-61485739D01*
X126796545Y-61240446D01*
X126714179Y-60852645D01*
X126685659Y-60421011D01*
X126709629Y-60041612D01*
X126778100Y-59708629D01*
X126887507Y-59415336D01*
X127036534Y-59156122D01*
X127226168Y-58926734D01*
X127426528Y-58754333D01*
X127639916Y-58628269D01*
X127867085Y-58547962D01*
X128089567Y-58522023D01*
G37*
G36*
X128278855Y-58812428D02*
G01*
X128278855Y-58522023D01*
X128462880Y-58536273D01*
X128649063Y-58579677D01*
X128839392Y-58654159D01*
X129053883Y-58787030D01*
X129209909Y-58948227D01*
X129285138Y-59074065D01*
X129329098Y-59203756D01*
X129343754Y-59339993D01*
X129326017Y-59487112D01*
X129274560Y-59614140D01*
X129188415Y-59725896D01*
X129076740Y-59812052D01*
X128949031Y-59863650D01*
X128800314Y-59881479D01*
X128668612Y-59866259D01*
X128553330Y-59821969D01*
X128450558Y-59747878D01*
X128369405Y-59651350D01*
X128322176Y-59545713D01*
X128306210Y-59427187D01*
X128335299Y-59284447D01*
X128431018Y-59131898D01*
X128506245Y-59033712D01*
X128524808Y-58964347D01*
X128503837Y-58901001D01*
X128432985Y-58849695D01*
X128278855Y-58812428D01*
G37*
G36*
X128010921Y-60612742D02*
G01*
X128010921Y-60280327D01*
X128218098Y-60186327D01*
X128411838Y-60133053D01*
X128595394Y-60115952D01*
X128764867Y-60132189D01*
X128938311Y-60182142D01*
X129100921Y-60261395D01*
X129239951Y-60364103D01*
X129366771Y-60509861D01*
X129463189Y-60685771D01*
X129522931Y-60879763D01*
X129543056Y-61086817D01*
X129513237Y-61363394D01*
X129422156Y-61638806D01*
X129330527Y-61811569D01*
X129224136Y-61955966D01*
X129102930Y-62075268D01*
X128928979Y-62192688D01*
X128720935Y-62287027D01*
X128500846Y-62347474D01*
X128292044Y-62366894D01*
X128215840Y-62366650D01*
X128215840Y-62064766D01*
X128316192Y-62026512D01*
X128373133Y-61978548D01*
X128405542Y-61911603D01*
X128418073Y-61808066D01*
X128418073Y-60783468D01*
X128404479Y-60674787D01*
X128368248Y-60599553D01*
X128310442Y-60550570D01*
X128237822Y-60538004D01*
X128149229Y-60554784D01*
X128010921Y-60612742D01*
G37*
D11*
X105758243Y-45892603D02*
X105487310Y-45505556D01*
X105293786Y-45892603D02*
X105293786Y-45079803D01*
X105293786Y-45079803D02*
X105603424Y-45079803D01*
X105603424Y-45079803D02*
X105680834Y-45118508D01*
X105680834Y-45118508D02*
X105719539Y-45157213D01*
X105719539Y-45157213D02*
X105758243Y-45234622D01*
X105758243Y-45234622D02*
X105758243Y-45350737D01*
X105758243Y-45350737D02*
X105719539Y-45428146D01*
X105719539Y-45428146D02*
X105680834Y-45466851D01*
X105680834Y-45466851D02*
X105603424Y-45505556D01*
X105603424Y-45505556D02*
X105293786Y-45505556D01*
X106416224Y-45853899D02*
X106338815Y-45892603D01*
X106338815Y-45892603D02*
X106183996Y-45892603D01*
X106183996Y-45892603D02*
X106106586Y-45853899D01*
X106106586Y-45853899D02*
X106067882Y-45776489D01*
X106067882Y-45776489D02*
X106067882Y-45466851D01*
X106067882Y-45466851D02*
X106106586Y-45389441D01*
X106106586Y-45389441D02*
X106183996Y-45350737D01*
X106183996Y-45350737D02*
X106338815Y-45350737D01*
X106338815Y-45350737D02*
X106416224Y-45389441D01*
X106416224Y-45389441D02*
X106454929Y-45466851D01*
X106454929Y-45466851D02*
X106454929Y-45544260D01*
X106454929Y-45544260D02*
X106067882Y-45621670D01*
X106803272Y-45892603D02*
X106803272Y-45350737D01*
X106803272Y-45428146D02*
X106841977Y-45389441D01*
X106841977Y-45389441D02*
X106919387Y-45350737D01*
X106919387Y-45350737D02*
X107035501Y-45350737D01*
X107035501Y-45350737D02*
X107112910Y-45389441D01*
X107112910Y-45389441D02*
X107151615Y-45466851D01*
X107151615Y-45466851D02*
X107151615Y-45892603D01*
X107151615Y-45466851D02*
X107190320Y-45389441D01*
X107190320Y-45389441D02*
X107267729Y-45350737D01*
X107267729Y-45350737D02*
X107383844Y-45350737D01*
X107383844Y-45350737D02*
X107461253Y-45389441D01*
X107461253Y-45389441D02*
X107499958Y-45466851D01*
X107499958Y-45466851D02*
X107499958Y-45892603D01*
X108196643Y-45853899D02*
X108119234Y-45892603D01*
X108119234Y-45892603D02*
X107964415Y-45892603D01*
X107964415Y-45892603D02*
X107887005Y-45853899D01*
X107887005Y-45853899D02*
X107848301Y-45776489D01*
X107848301Y-45776489D02*
X107848301Y-45466851D01*
X107848301Y-45466851D02*
X107887005Y-45389441D01*
X107887005Y-45389441D02*
X107964415Y-45350737D01*
X107964415Y-45350737D02*
X108119234Y-45350737D01*
X108119234Y-45350737D02*
X108196643Y-45389441D01*
X108196643Y-45389441D02*
X108235348Y-45466851D01*
X108235348Y-45466851D02*
X108235348Y-45544260D01*
X108235348Y-45544260D02*
X107848301Y-45621670D01*
X108583691Y-45892603D02*
X108583691Y-45350737D01*
X108583691Y-45428146D02*
X108622396Y-45389441D01*
X108622396Y-45389441D02*
X108699806Y-45350737D01*
X108699806Y-45350737D02*
X108815920Y-45350737D01*
X108815920Y-45350737D02*
X108893329Y-45389441D01*
X108893329Y-45389441D02*
X108932034Y-45466851D01*
X108932034Y-45466851D02*
X108932034Y-45892603D01*
X108932034Y-45466851D02*
X108970739Y-45389441D01*
X108970739Y-45389441D02*
X109048148Y-45350737D01*
X109048148Y-45350737D02*
X109164263Y-45350737D01*
X109164263Y-45350737D02*
X109241672Y-45389441D01*
X109241672Y-45389441D02*
X109280377Y-45466851D01*
X109280377Y-45466851D02*
X109280377Y-45892603D01*
X109667424Y-45892603D02*
X109667424Y-45079803D01*
X109667424Y-45389441D02*
X109744834Y-45350737D01*
X109744834Y-45350737D02*
X109899653Y-45350737D01*
X109899653Y-45350737D02*
X109977062Y-45389441D01*
X109977062Y-45389441D02*
X110015767Y-45428146D01*
X110015767Y-45428146D02*
X110054472Y-45505556D01*
X110054472Y-45505556D02*
X110054472Y-45737784D01*
X110054472Y-45737784D02*
X110015767Y-45815194D01*
X110015767Y-45815194D02*
X109977062Y-45853899D01*
X109977062Y-45853899D02*
X109899653Y-45892603D01*
X109899653Y-45892603D02*
X109744834Y-45892603D01*
X109744834Y-45892603D02*
X109667424Y-45853899D01*
X110712452Y-45853899D02*
X110635043Y-45892603D01*
X110635043Y-45892603D02*
X110480224Y-45892603D01*
X110480224Y-45892603D02*
X110402814Y-45853899D01*
X110402814Y-45853899D02*
X110364110Y-45776489D01*
X110364110Y-45776489D02*
X110364110Y-45466851D01*
X110364110Y-45466851D02*
X110402814Y-45389441D01*
X110402814Y-45389441D02*
X110480224Y-45350737D01*
X110480224Y-45350737D02*
X110635043Y-45350737D01*
X110635043Y-45350737D02*
X110712452Y-45389441D01*
X110712452Y-45389441D02*
X110751157Y-45466851D01*
X110751157Y-45466851D02*
X110751157Y-45544260D01*
X110751157Y-45544260D02*
X110364110Y-45621670D01*
X111099500Y-45892603D02*
X111099500Y-45350737D01*
X111099500Y-45505556D02*
X111138205Y-45428146D01*
X111138205Y-45428146D02*
X111176910Y-45389441D01*
X111176910Y-45389441D02*
X111254319Y-45350737D01*
X111254319Y-45350737D02*
X111331729Y-45350737D01*
X112221938Y-45466851D02*
X112492872Y-45466851D01*
X112608986Y-45892603D02*
X112221938Y-45892603D01*
X112221938Y-45892603D02*
X112221938Y-45079803D01*
X112221938Y-45079803D02*
X112608986Y-45079803D01*
X112957328Y-45350737D02*
X112957328Y-45892603D01*
X112957328Y-45428146D02*
X112996033Y-45389441D01*
X112996033Y-45389441D02*
X113073443Y-45350737D01*
X113073443Y-45350737D02*
X113189557Y-45350737D01*
X113189557Y-45350737D02*
X113266966Y-45389441D01*
X113266966Y-45389441D02*
X113305671Y-45466851D01*
X113305671Y-45466851D02*
X113305671Y-45892603D01*
X114041061Y-45892603D02*
X114041061Y-45466851D01*
X114041061Y-45466851D02*
X114002356Y-45389441D01*
X114002356Y-45389441D02*
X113924947Y-45350737D01*
X113924947Y-45350737D02*
X113770128Y-45350737D01*
X113770128Y-45350737D02*
X113692718Y-45389441D01*
X114041061Y-45853899D02*
X113963652Y-45892603D01*
X113963652Y-45892603D02*
X113770128Y-45892603D01*
X113770128Y-45892603D02*
X113692718Y-45853899D01*
X113692718Y-45853899D02*
X113654014Y-45776489D01*
X113654014Y-45776489D02*
X113654014Y-45699079D01*
X113654014Y-45699079D02*
X113692718Y-45621670D01*
X113692718Y-45621670D02*
X113770128Y-45582965D01*
X113770128Y-45582965D02*
X113963652Y-45582965D01*
X113963652Y-45582965D02*
X114041061Y-45544260D01*
X114428108Y-45892603D02*
X114428108Y-45079803D01*
X114428108Y-45389441D02*
X114505518Y-45350737D01*
X114505518Y-45350737D02*
X114660337Y-45350737D01*
X114660337Y-45350737D02*
X114737746Y-45389441D01*
X114737746Y-45389441D02*
X114776451Y-45428146D01*
X114776451Y-45428146D02*
X114815156Y-45505556D01*
X114815156Y-45505556D02*
X114815156Y-45737784D01*
X114815156Y-45737784D02*
X114776451Y-45815194D01*
X114776451Y-45815194D02*
X114737746Y-45853899D01*
X114737746Y-45853899D02*
X114660337Y-45892603D01*
X114660337Y-45892603D02*
X114505518Y-45892603D01*
X114505518Y-45892603D02*
X114428108Y-45853899D01*
X115279613Y-45892603D02*
X115202203Y-45853899D01*
X115202203Y-45853899D02*
X115163498Y-45776489D01*
X115163498Y-45776489D02*
X115163498Y-45079803D01*
X115898888Y-45853899D02*
X115821479Y-45892603D01*
X115821479Y-45892603D02*
X115666660Y-45892603D01*
X115666660Y-45892603D02*
X115589250Y-45853899D01*
X115589250Y-45853899D02*
X115550546Y-45776489D01*
X115550546Y-45776489D02*
X115550546Y-45466851D01*
X115550546Y-45466851D02*
X115589250Y-45389441D01*
X115589250Y-45389441D02*
X115666660Y-45350737D01*
X115666660Y-45350737D02*
X115821479Y-45350737D01*
X115821479Y-45350737D02*
X115898888Y-45389441D01*
X115898888Y-45389441D02*
X115937593Y-45466851D01*
X115937593Y-45466851D02*
X115937593Y-45544260D01*
X115937593Y-45544260D02*
X115550546Y-45621670D01*
X116905212Y-45892603D02*
X116905212Y-45079803D01*
X117292260Y-45350737D02*
X117292260Y-45892603D01*
X117292260Y-45428146D02*
X117330965Y-45389441D01*
X117330965Y-45389441D02*
X117408375Y-45350737D01*
X117408375Y-45350737D02*
X117524489Y-45350737D01*
X117524489Y-45350737D02*
X117601898Y-45389441D01*
X117601898Y-45389441D02*
X117640603Y-45466851D01*
X117640603Y-45466851D02*
X117640603Y-45892603D01*
X117911536Y-45350737D02*
X118221174Y-45350737D01*
X118027650Y-45079803D02*
X118027650Y-45776489D01*
X118027650Y-45776489D02*
X118066355Y-45853899D01*
X118066355Y-45853899D02*
X118143765Y-45892603D01*
X118143765Y-45892603D02*
X118221174Y-45892603D01*
X118801745Y-45853899D02*
X118724336Y-45892603D01*
X118724336Y-45892603D02*
X118569517Y-45892603D01*
X118569517Y-45892603D02*
X118492107Y-45853899D01*
X118492107Y-45853899D02*
X118453403Y-45776489D01*
X118453403Y-45776489D02*
X118453403Y-45466851D01*
X118453403Y-45466851D02*
X118492107Y-45389441D01*
X118492107Y-45389441D02*
X118569517Y-45350737D01*
X118569517Y-45350737D02*
X118724336Y-45350737D01*
X118724336Y-45350737D02*
X118801745Y-45389441D01*
X118801745Y-45389441D02*
X118840450Y-45466851D01*
X118840450Y-45466851D02*
X118840450Y-45544260D01*
X118840450Y-45544260D02*
X118453403Y-45621670D01*
X119188793Y-45892603D02*
X119188793Y-45350737D01*
X119188793Y-45505556D02*
X119227498Y-45428146D01*
X119227498Y-45428146D02*
X119266203Y-45389441D01*
X119266203Y-45389441D02*
X119343612Y-45350737D01*
X119343612Y-45350737D02*
X119421022Y-45350737D01*
X119691955Y-45350737D02*
X119691955Y-45892603D01*
X119691955Y-45428146D02*
X119730660Y-45389441D01*
X119730660Y-45389441D02*
X119808070Y-45350737D01*
X119808070Y-45350737D02*
X119924184Y-45350737D01*
X119924184Y-45350737D02*
X120001593Y-45389441D01*
X120001593Y-45389441D02*
X120040298Y-45466851D01*
X120040298Y-45466851D02*
X120040298Y-45892603D01*
X120775688Y-45892603D02*
X120775688Y-45466851D01*
X120775688Y-45466851D02*
X120736983Y-45389441D01*
X120736983Y-45389441D02*
X120659574Y-45350737D01*
X120659574Y-45350737D02*
X120504755Y-45350737D01*
X120504755Y-45350737D02*
X120427345Y-45389441D01*
X120775688Y-45853899D02*
X120698279Y-45892603D01*
X120698279Y-45892603D02*
X120504755Y-45892603D01*
X120504755Y-45892603D02*
X120427345Y-45853899D01*
X120427345Y-45853899D02*
X120388641Y-45776489D01*
X120388641Y-45776489D02*
X120388641Y-45699079D01*
X120388641Y-45699079D02*
X120427345Y-45621670D01*
X120427345Y-45621670D02*
X120504755Y-45582965D01*
X120504755Y-45582965D02*
X120698279Y-45582965D01*
X120698279Y-45582965D02*
X120775688Y-45544260D01*
X121278850Y-45892603D02*
X121201440Y-45853899D01*
X121201440Y-45853899D02*
X121162735Y-45776489D01*
X121162735Y-45776489D02*
X121162735Y-45079803D01*
X122207763Y-45892603D02*
X122207763Y-45079803D01*
X122207763Y-45079803D02*
X122517401Y-45079803D01*
X122517401Y-45079803D02*
X122594811Y-45118508D01*
X122594811Y-45118508D02*
X122633516Y-45157213D01*
X122633516Y-45157213D02*
X122672220Y-45234622D01*
X122672220Y-45234622D02*
X122672220Y-45350737D01*
X122672220Y-45350737D02*
X122633516Y-45428146D01*
X122633516Y-45428146D02*
X122594811Y-45466851D01*
X122594811Y-45466851D02*
X122517401Y-45505556D01*
X122517401Y-45505556D02*
X122207763Y-45505556D01*
X123368906Y-45350737D02*
X123368906Y-45892603D01*
X123020563Y-45350737D02*
X123020563Y-45776489D01*
X123020563Y-45776489D02*
X123059268Y-45853899D01*
X123059268Y-45853899D02*
X123136678Y-45892603D01*
X123136678Y-45892603D02*
X123252792Y-45892603D01*
X123252792Y-45892603D02*
X123330201Y-45853899D01*
X123330201Y-45853899D02*
X123368906Y-45815194D01*
X123872068Y-45892603D02*
X123794658Y-45853899D01*
X123794658Y-45853899D02*
X123755953Y-45776489D01*
X123755953Y-45776489D02*
X123755953Y-45079803D01*
X124297820Y-45892603D02*
X124220410Y-45853899D01*
X124220410Y-45853899D02*
X124181705Y-45776489D01*
X124181705Y-45776489D02*
X124181705Y-45079803D01*
X124955800Y-45350737D02*
X124955800Y-45892603D01*
X124607457Y-45350737D02*
X124607457Y-45776489D01*
X124607457Y-45776489D02*
X124646162Y-45853899D01*
X124646162Y-45853899D02*
X124723572Y-45892603D01*
X124723572Y-45892603D02*
X124839686Y-45892603D01*
X124839686Y-45892603D02*
X124917095Y-45853899D01*
X124917095Y-45853899D02*
X124955800Y-45815194D01*
X125342847Y-45350737D02*
X125342847Y-46163537D01*
X125342847Y-45389441D02*
X125420257Y-45350737D01*
X125420257Y-45350737D02*
X125575076Y-45350737D01*
X125575076Y-45350737D02*
X125652485Y-45389441D01*
X125652485Y-45389441D02*
X125691190Y-45428146D01*
X125691190Y-45428146D02*
X125729895Y-45505556D01*
X125729895Y-45505556D02*
X125729895Y-45737784D01*
X125729895Y-45737784D02*
X125691190Y-45815194D01*
X125691190Y-45815194D02*
X125652485Y-45853899D01*
X125652485Y-45853899D02*
X125575076Y-45892603D01*
X125575076Y-45892603D02*
X125420257Y-45892603D01*
X125420257Y-45892603D02*
X125342847Y-45853899D01*
X126039533Y-45853899D02*
X126116942Y-45892603D01*
X126116942Y-45892603D02*
X126271761Y-45892603D01*
X126271761Y-45892603D02*
X126349171Y-45853899D01*
X126349171Y-45853899D02*
X126387875Y-45776489D01*
X126387875Y-45776489D02*
X126387875Y-45737784D01*
X126387875Y-45737784D02*
X126349171Y-45660375D01*
X126349171Y-45660375D02*
X126271761Y-45621670D01*
X126271761Y-45621670D02*
X126155647Y-45621670D01*
X126155647Y-45621670D02*
X126078237Y-45582965D01*
X126078237Y-45582965D02*
X126039533Y-45505556D01*
X126039533Y-45505556D02*
X126039533Y-45466851D01*
X126039533Y-45466851D02*
X126078237Y-45389441D01*
X126078237Y-45389441D02*
X126155647Y-45350737D01*
X126155647Y-45350737D02*
X126271761Y-45350737D01*
X126271761Y-45350737D02*
X126349171Y-45389441D01*
X144079803Y-113822327D02*
X144892603Y-113551394D01*
X144892603Y-113551394D02*
X144079803Y-113280460D01*
X144466851Y-112738593D02*
X144505556Y-112622479D01*
X144505556Y-112622479D02*
X144544260Y-112583774D01*
X144544260Y-112583774D02*
X144621670Y-112545070D01*
X144621670Y-112545070D02*
X144737784Y-112545070D01*
X144737784Y-112545070D02*
X144815194Y-112583774D01*
X144815194Y-112583774D02*
X144853899Y-112622479D01*
X144853899Y-112622479D02*
X144892603Y-112699889D01*
X144892603Y-112699889D02*
X144892603Y-113009527D01*
X144892603Y-113009527D02*
X144079803Y-113009527D01*
X144079803Y-113009527D02*
X144079803Y-112738593D01*
X144079803Y-112738593D02*
X144118508Y-112661184D01*
X144118508Y-112661184D02*
X144157213Y-112622479D01*
X144157213Y-112622479D02*
X144234622Y-112583774D01*
X144234622Y-112583774D02*
X144312032Y-112583774D01*
X144312032Y-112583774D02*
X144389441Y-112622479D01*
X144389441Y-112622479D02*
X144428146Y-112661184D01*
X144428146Y-112661184D02*
X144466851Y-112738593D01*
X144466851Y-112738593D02*
X144466851Y-113009527D01*
X144582965Y-112196727D02*
X144582965Y-111577451D01*
X144892603Y-111887089D02*
X144273327Y-111887089D01*
X144079803Y-108322327D02*
X144892603Y-108051394D01*
X144892603Y-108051394D02*
X144079803Y-107780460D01*
X144466851Y-107238593D02*
X144505556Y-107122479D01*
X144505556Y-107122479D02*
X144544260Y-107083774D01*
X144544260Y-107083774D02*
X144621670Y-107045070D01*
X144621670Y-107045070D02*
X144737784Y-107045070D01*
X144737784Y-107045070D02*
X144815194Y-107083774D01*
X144815194Y-107083774D02*
X144853899Y-107122479D01*
X144853899Y-107122479D02*
X144892603Y-107199889D01*
X144892603Y-107199889D02*
X144892603Y-107509527D01*
X144892603Y-107509527D02*
X144079803Y-107509527D01*
X144079803Y-107509527D02*
X144079803Y-107238593D01*
X144079803Y-107238593D02*
X144118508Y-107161184D01*
X144118508Y-107161184D02*
X144157213Y-107122479D01*
X144157213Y-107122479D02*
X144234622Y-107083774D01*
X144234622Y-107083774D02*
X144312032Y-107083774D01*
X144312032Y-107083774D02*
X144389441Y-107122479D01*
X144389441Y-107122479D02*
X144428146Y-107161184D01*
X144428146Y-107161184D02*
X144466851Y-107238593D01*
X144466851Y-107238593D02*
X144466851Y-107509527D01*
X144582965Y-106696727D02*
X144582965Y-106077451D01*
D12*
X195945333Y-118834819D02*
X196611999Y-119834819D01*
X196611999Y-118834819D02*
X195945333Y-119834819D01*
X196850095Y-118834819D02*
X197421523Y-118834819D01*
X197135809Y-119834819D02*
X197135809Y-118834819D01*
X198183428Y-118834819D02*
X197992952Y-118834819D01*
X197992952Y-118834819D02*
X197897714Y-118882438D01*
X197897714Y-118882438D02*
X197850095Y-118930057D01*
X197850095Y-118930057D02*
X197754857Y-119072914D01*
X197754857Y-119072914D02*
X197707238Y-119263390D01*
X197707238Y-119263390D02*
X197707238Y-119644342D01*
X197707238Y-119644342D02*
X197754857Y-119739580D01*
X197754857Y-119739580D02*
X197802476Y-119787200D01*
X197802476Y-119787200D02*
X197897714Y-119834819D01*
X197897714Y-119834819D02*
X198088190Y-119834819D01*
X198088190Y-119834819D02*
X198183428Y-119787200D01*
X198183428Y-119787200D02*
X198231047Y-119739580D01*
X198231047Y-119739580D02*
X198278666Y-119644342D01*
X198278666Y-119644342D02*
X198278666Y-119406247D01*
X198278666Y-119406247D02*
X198231047Y-119311009D01*
X198231047Y-119311009D02*
X198183428Y-119263390D01*
X198183428Y-119263390D02*
X198088190Y-119215771D01*
X198088190Y-119215771D02*
X197897714Y-119215771D01*
X197897714Y-119215771D02*
X197802476Y-119263390D01*
X197802476Y-119263390D02*
X197754857Y-119311009D01*
X197754857Y-119311009D02*
X197707238Y-119406247D01*
X198897714Y-118834819D02*
X198992952Y-118834819D01*
X198992952Y-118834819D02*
X199088190Y-118882438D01*
X199088190Y-118882438D02*
X199135809Y-118930057D01*
X199135809Y-118930057D02*
X199183428Y-119025295D01*
X199183428Y-119025295D02*
X199231047Y-119215771D01*
X199231047Y-119215771D02*
X199231047Y-119453866D01*
X199231047Y-119453866D02*
X199183428Y-119644342D01*
X199183428Y-119644342D02*
X199135809Y-119739580D01*
X199135809Y-119739580D02*
X199088190Y-119787200D01*
X199088190Y-119787200D02*
X198992952Y-119834819D01*
X198992952Y-119834819D02*
X198897714Y-119834819D01*
X198897714Y-119834819D02*
X198802476Y-119787200D01*
X198802476Y-119787200D02*
X198754857Y-119739580D01*
X198754857Y-119739580D02*
X198707238Y-119644342D01*
X198707238Y-119644342D02*
X198659619Y-119453866D01*
X198659619Y-119453866D02*
X198659619Y-119215771D01*
X198659619Y-119215771D02*
X198707238Y-119025295D01*
X198707238Y-119025295D02*
X198754857Y-118930057D01*
X198754857Y-118930057D02*
X198802476Y-118882438D01*
X198802476Y-118882438D02*
X198897714Y-118834819D01*
X186044700Y-103899428D02*
X186044700Y-102756571D01*
X186044700Y-116199428D02*
X186044700Y-115056571D01*
X186616128Y-115627999D02*
X185473271Y-115627999D01*
X97183333Y-57894819D02*
X96850000Y-57418628D01*
X96611905Y-57894819D02*
X96611905Y-56894819D01*
X96611905Y-56894819D02*
X96992857Y-56894819D01*
X96992857Y-56894819D02*
X97088095Y-56942438D01*
X97088095Y-56942438D02*
X97135714Y-56990057D01*
X97135714Y-56990057D02*
X97183333Y-57085295D01*
X97183333Y-57085295D02*
X97183333Y-57228152D01*
X97183333Y-57228152D02*
X97135714Y-57323390D01*
X97135714Y-57323390D02*
X97088095Y-57371009D01*
X97088095Y-57371009D02*
X96992857Y-57418628D01*
X96992857Y-57418628D02*
X96611905Y-57418628D01*
X98135714Y-57894819D02*
X97564286Y-57894819D01*
X97850000Y-57894819D02*
X97850000Y-56894819D01*
X97850000Y-56894819D02*
X97754762Y-57037676D01*
X97754762Y-57037676D02*
X97659524Y-57132914D01*
X97659524Y-57132914D02*
X97564286Y-57180533D01*
X97183333Y-87104819D02*
X96850000Y-86628628D01*
X96611905Y-87104819D02*
X96611905Y-86104819D01*
X96611905Y-86104819D02*
X96992857Y-86104819D01*
X96992857Y-86104819D02*
X97088095Y-86152438D01*
X97088095Y-86152438D02*
X97135714Y-86200057D01*
X97135714Y-86200057D02*
X97183333Y-86295295D01*
X97183333Y-86295295D02*
X97183333Y-86438152D01*
X97183333Y-86438152D02*
X97135714Y-86533390D01*
X97135714Y-86533390D02*
X97088095Y-86581009D01*
X97088095Y-86581009D02*
X96992857Y-86628628D01*
X96992857Y-86628628D02*
X96611905Y-86628628D01*
X98040476Y-86438152D02*
X98040476Y-87104819D01*
X97802381Y-86057200D02*
X97564286Y-86771485D01*
X97564286Y-86771485D02*
X98183333Y-86771485D01*
X151616667Y-127977200D02*
X151759524Y-128024819D01*
X151759524Y-128024819D02*
X151997619Y-128024819D01*
X151997619Y-128024819D02*
X152092857Y-127977200D01*
X152092857Y-127977200D02*
X152140476Y-127929580D01*
X152140476Y-127929580D02*
X152188095Y-127834342D01*
X152188095Y-127834342D02*
X152188095Y-127739104D01*
X152188095Y-127739104D02*
X152140476Y-127643866D01*
X152140476Y-127643866D02*
X152092857Y-127596247D01*
X152092857Y-127596247D02*
X151997619Y-127548628D01*
X151997619Y-127548628D02*
X151807143Y-127501009D01*
X151807143Y-127501009D02*
X151711905Y-127453390D01*
X151711905Y-127453390D02*
X151664286Y-127405771D01*
X151664286Y-127405771D02*
X151616667Y-127310533D01*
X151616667Y-127310533D02*
X151616667Y-127215295D01*
X151616667Y-127215295D02*
X151664286Y-127120057D01*
X151664286Y-127120057D02*
X151711905Y-127072438D01*
X151711905Y-127072438D02*
X151807143Y-127024819D01*
X151807143Y-127024819D02*
X152045238Y-127024819D01*
X152045238Y-127024819D02*
X152188095Y-127072438D01*
X152521429Y-127024819D02*
X152759524Y-128024819D01*
X152759524Y-128024819D02*
X152950000Y-127310533D01*
X152950000Y-127310533D02*
X153140476Y-128024819D01*
X153140476Y-128024819D02*
X153378572Y-127024819D01*
X154283333Y-128024819D02*
X153711905Y-128024819D01*
X153997619Y-128024819D02*
X153997619Y-127024819D01*
X153997619Y-127024819D02*
X153902381Y-127167676D01*
X153902381Y-127167676D02*
X153807143Y-127262914D01*
X153807143Y-127262914D02*
X153711905Y-127310533D01*
X97183333Y-67104819D02*
X96850000Y-66628628D01*
X96611905Y-67104819D02*
X96611905Y-66104819D01*
X96611905Y-66104819D02*
X96992857Y-66104819D01*
X96992857Y-66104819D02*
X97088095Y-66152438D01*
X97088095Y-66152438D02*
X97135714Y-66200057D01*
X97135714Y-66200057D02*
X97183333Y-66295295D01*
X97183333Y-66295295D02*
X97183333Y-66438152D01*
X97183333Y-66438152D02*
X97135714Y-66533390D01*
X97135714Y-66533390D02*
X97088095Y-66581009D01*
X97088095Y-66581009D02*
X96992857Y-66628628D01*
X96992857Y-66628628D02*
X96611905Y-66628628D01*
X97564286Y-66200057D02*
X97611905Y-66152438D01*
X97611905Y-66152438D02*
X97707143Y-66104819D01*
X97707143Y-66104819D02*
X97945238Y-66104819D01*
X97945238Y-66104819D02*
X98040476Y-66152438D01*
X98040476Y-66152438D02*
X98088095Y-66200057D01*
X98088095Y-66200057D02*
X98135714Y-66295295D01*
X98135714Y-66295295D02*
X98135714Y-66390533D01*
X98135714Y-66390533D02*
X98088095Y-66533390D01*
X98088095Y-66533390D02*
X97516667Y-67104819D01*
X97516667Y-67104819D02*
X98135714Y-67104819D01*
X163601905Y-119660819D02*
X163601905Y-118660819D01*
X163601905Y-118660819D02*
X163840000Y-118660819D01*
X163840000Y-118660819D02*
X163982857Y-118708438D01*
X163982857Y-118708438D02*
X164078095Y-118803676D01*
X164078095Y-118803676D02*
X164125714Y-118898914D01*
X164125714Y-118898914D02*
X164173333Y-119089390D01*
X164173333Y-119089390D02*
X164173333Y-119232247D01*
X164173333Y-119232247D02*
X164125714Y-119422723D01*
X164125714Y-119422723D02*
X164078095Y-119517961D01*
X164078095Y-119517961D02*
X163982857Y-119613200D01*
X163982857Y-119613200D02*
X163840000Y-119660819D01*
X163840000Y-119660819D02*
X163601905Y-119660819D01*
X165125714Y-119660819D02*
X164554286Y-119660819D01*
X164840000Y-119660819D02*
X164840000Y-118660819D01*
X164840000Y-118660819D02*
X164744762Y-118803676D01*
X164744762Y-118803676D02*
X164649524Y-118898914D01*
X164649524Y-118898914D02*
X164554286Y-118946533D01*
X151374166Y-103454819D02*
X151374166Y-104169104D01*
X151374166Y-104169104D02*
X151326547Y-104311961D01*
X151326547Y-104311961D02*
X151231309Y-104407200D01*
X151231309Y-104407200D02*
X151088452Y-104454819D01*
X151088452Y-104454819D02*
X150993214Y-104454819D01*
X151802738Y-103550057D02*
X151850357Y-103502438D01*
X151850357Y-103502438D02*
X151945595Y-103454819D01*
X151945595Y-103454819D02*
X152183690Y-103454819D01*
X152183690Y-103454819D02*
X152278928Y-103502438D01*
X152278928Y-103502438D02*
X152326547Y-103550057D01*
X152326547Y-103550057D02*
X152374166Y-103645295D01*
X152374166Y-103645295D02*
X152374166Y-103740533D01*
X152374166Y-103740533D02*
X152326547Y-103883390D01*
X152326547Y-103883390D02*
X151755119Y-104454819D01*
X151755119Y-104454819D02*
X152374166Y-104454819D01*
X192334819Y-69869523D02*
X193049104Y-69869523D01*
X193049104Y-69869523D02*
X193191961Y-69917142D01*
X193191961Y-69917142D02*
X193287200Y-70012380D01*
X193287200Y-70012380D02*
X193334819Y-70155237D01*
X193334819Y-70155237D02*
X193334819Y-70250475D01*
X193334819Y-68869523D02*
X193334819Y-69440951D01*
X193334819Y-69155237D02*
X192334819Y-69155237D01*
X192334819Y-69155237D02*
X192477676Y-69250475D01*
X192477676Y-69250475D02*
X192572914Y-69345713D01*
X192572914Y-69345713D02*
X192620533Y-69440951D01*
X192334819Y-68250475D02*
X192334819Y-68155237D01*
X192334819Y-68155237D02*
X192382438Y-68059999D01*
X192382438Y-68059999D02*
X192430057Y-68012380D01*
X192430057Y-68012380D02*
X192525295Y-67964761D01*
X192525295Y-67964761D02*
X192715771Y-67917142D01*
X192715771Y-67917142D02*
X192953866Y-67917142D01*
X192953866Y-67917142D02*
X193144342Y-67964761D01*
X193144342Y-67964761D02*
X193239580Y-68012380D01*
X193239580Y-68012380D02*
X193287200Y-68059999D01*
X193287200Y-68059999D02*
X193334819Y-68155237D01*
X193334819Y-68155237D02*
X193334819Y-68250475D01*
X193334819Y-68250475D02*
X193287200Y-68345713D01*
X193287200Y-68345713D02*
X193239580Y-68393332D01*
X193239580Y-68393332D02*
X193144342Y-68440951D01*
X193144342Y-68440951D02*
X192953866Y-68488570D01*
X192953866Y-68488570D02*
X192715771Y-68488570D01*
X192715771Y-68488570D02*
X192525295Y-68440951D01*
X192525295Y-68440951D02*
X192430057Y-68393332D01*
X192430057Y-68393332D02*
X192382438Y-68345713D01*
X192382438Y-68345713D02*
X192334819Y-68250475D01*
X194019819Y-52833333D02*
X194734104Y-52833333D01*
X194734104Y-52833333D02*
X194876961Y-52880952D01*
X194876961Y-52880952D02*
X194972200Y-52976190D01*
X194972200Y-52976190D02*
X195019819Y-53119047D01*
X195019819Y-53119047D02*
X195019819Y-53214285D01*
X194019819Y-52452380D02*
X194019819Y-51833333D01*
X194019819Y-51833333D02*
X194400771Y-52166666D01*
X194400771Y-52166666D02*
X194400771Y-52023809D01*
X194400771Y-52023809D02*
X194448390Y-51928571D01*
X194448390Y-51928571D02*
X194496009Y-51880952D01*
X194496009Y-51880952D02*
X194591247Y-51833333D01*
X194591247Y-51833333D02*
X194829342Y-51833333D01*
X194829342Y-51833333D02*
X194924580Y-51880952D01*
X194924580Y-51880952D02*
X194972200Y-51928571D01*
X194972200Y-51928571D02*
X195019819Y-52023809D01*
X195019819Y-52023809D02*
X195019819Y-52309523D01*
X195019819Y-52309523D02*
X194972200Y-52404761D01*
X194972200Y-52404761D02*
X194924580Y-52452380D01*
X97183333Y-76944819D02*
X96850000Y-76468628D01*
X96611905Y-76944819D02*
X96611905Y-75944819D01*
X96611905Y-75944819D02*
X96992857Y-75944819D01*
X96992857Y-75944819D02*
X97088095Y-75992438D01*
X97088095Y-75992438D02*
X97135714Y-76040057D01*
X97135714Y-76040057D02*
X97183333Y-76135295D01*
X97183333Y-76135295D02*
X97183333Y-76278152D01*
X97183333Y-76278152D02*
X97135714Y-76373390D01*
X97135714Y-76373390D02*
X97088095Y-76421009D01*
X97088095Y-76421009D02*
X96992857Y-76468628D01*
X96992857Y-76468628D02*
X96611905Y-76468628D01*
X97516667Y-75944819D02*
X98135714Y-75944819D01*
X98135714Y-75944819D02*
X97802381Y-76325771D01*
X97802381Y-76325771D02*
X97945238Y-76325771D01*
X97945238Y-76325771D02*
X98040476Y-76373390D01*
X98040476Y-76373390D02*
X98088095Y-76421009D01*
X98088095Y-76421009D02*
X98135714Y-76516247D01*
X98135714Y-76516247D02*
X98135714Y-76754342D01*
X98135714Y-76754342D02*
X98088095Y-76849580D01*
X98088095Y-76849580D02*
X98040476Y-76897200D01*
X98040476Y-76897200D02*
X97945238Y-76944819D01*
X97945238Y-76944819D02*
X97659524Y-76944819D01*
X97659524Y-76944819D02*
X97564286Y-76897200D01*
X97564286Y-76897200D02*
X97516667Y-76849580D01*
X192494819Y-75743333D02*
X193209104Y-75743333D01*
X193209104Y-75743333D02*
X193351961Y-75790952D01*
X193351961Y-75790952D02*
X193447200Y-75886190D01*
X193447200Y-75886190D02*
X193494819Y-76029047D01*
X193494819Y-76029047D02*
X193494819Y-76124285D01*
X192923390Y-75124285D02*
X192875771Y-75219523D01*
X192875771Y-75219523D02*
X192828152Y-75267142D01*
X192828152Y-75267142D02*
X192732914Y-75314761D01*
X192732914Y-75314761D02*
X192685295Y-75314761D01*
X192685295Y-75314761D02*
X192590057Y-75267142D01*
X192590057Y-75267142D02*
X192542438Y-75219523D01*
X192542438Y-75219523D02*
X192494819Y-75124285D01*
X192494819Y-75124285D02*
X192494819Y-74933809D01*
X192494819Y-74933809D02*
X192542438Y-74838571D01*
X192542438Y-74838571D02*
X192590057Y-74790952D01*
X192590057Y-74790952D02*
X192685295Y-74743333D01*
X192685295Y-74743333D02*
X192732914Y-74743333D01*
X192732914Y-74743333D02*
X192828152Y-74790952D01*
X192828152Y-74790952D02*
X192875771Y-74838571D01*
X192875771Y-74838571D02*
X192923390Y-74933809D01*
X192923390Y-74933809D02*
X192923390Y-75124285D01*
X192923390Y-75124285D02*
X192971009Y-75219523D01*
X192971009Y-75219523D02*
X193018628Y-75267142D01*
X193018628Y-75267142D02*
X193113866Y-75314761D01*
X193113866Y-75314761D02*
X193304342Y-75314761D01*
X193304342Y-75314761D02*
X193399580Y-75267142D01*
X193399580Y-75267142D02*
X193447200Y-75219523D01*
X193447200Y-75219523D02*
X193494819Y-75124285D01*
X193494819Y-75124285D02*
X193494819Y-74933809D01*
X193494819Y-74933809D02*
X193447200Y-74838571D01*
X193447200Y-74838571D02*
X193399580Y-74790952D01*
X193399580Y-74790952D02*
X193304342Y-74743333D01*
X193304342Y-74743333D02*
X193113866Y-74743333D01*
X193113866Y-74743333D02*
X193018628Y-74790952D01*
X193018628Y-74790952D02*
X192971009Y-74838571D01*
X192971009Y-74838571D02*
X192923390Y-74933809D01*
X102627200Y-42273332D02*
X102674819Y-42130475D01*
X102674819Y-42130475D02*
X102674819Y-41892380D01*
X102674819Y-41892380D02*
X102627200Y-41797142D01*
X102627200Y-41797142D02*
X102579580Y-41749523D01*
X102579580Y-41749523D02*
X102484342Y-41701904D01*
X102484342Y-41701904D02*
X102389104Y-41701904D01*
X102389104Y-41701904D02*
X102293866Y-41749523D01*
X102293866Y-41749523D02*
X102246247Y-41797142D01*
X102246247Y-41797142D02*
X102198628Y-41892380D01*
X102198628Y-41892380D02*
X102151009Y-42082856D01*
X102151009Y-42082856D02*
X102103390Y-42178094D01*
X102103390Y-42178094D02*
X102055771Y-42225713D01*
X102055771Y-42225713D02*
X101960533Y-42273332D01*
X101960533Y-42273332D02*
X101865295Y-42273332D01*
X101865295Y-42273332D02*
X101770057Y-42225713D01*
X101770057Y-42225713D02*
X101722438Y-42178094D01*
X101722438Y-42178094D02*
X101674819Y-42082856D01*
X101674819Y-42082856D02*
X101674819Y-41844761D01*
X101674819Y-41844761D02*
X101722438Y-41701904D01*
X101674819Y-41368570D02*
X102674819Y-41130475D01*
X102674819Y-41130475D02*
X101960533Y-40939999D01*
X101960533Y-40939999D02*
X102674819Y-40749523D01*
X102674819Y-40749523D02*
X101674819Y-40511428D01*
X101770057Y-40178094D02*
X101722438Y-40130475D01*
X101722438Y-40130475D02*
X101674819Y-40035237D01*
X101674819Y-40035237D02*
X101674819Y-39797142D01*
X101674819Y-39797142D02*
X101722438Y-39701904D01*
X101722438Y-39701904D02*
X101770057Y-39654285D01*
X101770057Y-39654285D02*
X101865295Y-39606666D01*
X101865295Y-39606666D02*
X101960533Y-39606666D01*
X101960533Y-39606666D02*
X102103390Y-39654285D01*
X102103390Y-39654285D02*
X102674819Y-40225713D01*
X102674819Y-40225713D02*
X102674819Y-39606666D01*
D13*
X110828095Y-111667419D02*
X110828095Y-112476942D01*
X110828095Y-112476942D02*
X110875714Y-112572180D01*
X110875714Y-112572180D02*
X110923333Y-112619800D01*
X110923333Y-112619800D02*
X111018571Y-112667419D01*
X111018571Y-112667419D02*
X111209047Y-112667419D01*
X111209047Y-112667419D02*
X111304285Y-112619800D01*
X111304285Y-112619800D02*
X111351904Y-112572180D01*
X111351904Y-112572180D02*
X111399523Y-112476942D01*
X111399523Y-112476942D02*
X111399523Y-111667419D01*
X112399523Y-112667419D02*
X111828095Y-112667419D01*
X112113809Y-112667419D02*
X112113809Y-111667419D01*
X112113809Y-111667419D02*
X112018571Y-111810276D01*
X112018571Y-111810276D02*
X111923333Y-111905514D01*
X111923333Y-111905514D02*
X111828095Y-111953133D01*
X93393884Y-106082419D02*
X93393884Y-105082419D01*
X93393884Y-105082419D02*
X93727217Y-105796704D01*
X93727217Y-105796704D02*
X94060550Y-105082419D01*
X94060550Y-105082419D02*
X94060550Y-106082419D01*
X94489122Y-105177657D02*
X94536741Y-105130038D01*
X94536741Y-105130038D02*
X94631979Y-105082419D01*
X94631979Y-105082419D02*
X94870074Y-105082419D01*
X94870074Y-105082419D02*
X94965312Y-105130038D01*
X94965312Y-105130038D02*
X95012931Y-105177657D01*
X95012931Y-105177657D02*
X95060550Y-105272895D01*
X95060550Y-105272895D02*
X95060550Y-105368133D01*
X95060550Y-105368133D02*
X95012931Y-105510990D01*
X95012931Y-105510990D02*
X94441503Y-106082419D01*
X94441503Y-106082419D02*
X95060550Y-106082419D01*
X95822455Y-105558609D02*
X95965312Y-105606228D01*
X95965312Y-105606228D02*
X96012931Y-105653847D01*
X96012931Y-105653847D02*
X96060550Y-105749085D01*
X96060550Y-105749085D02*
X96060550Y-105891942D01*
X96060550Y-105891942D02*
X96012931Y-105987180D01*
X96012931Y-105987180D02*
X95965312Y-106034800D01*
X95965312Y-106034800D02*
X95870074Y-106082419D01*
X95870074Y-106082419D02*
X95489122Y-106082419D01*
X95489122Y-106082419D02*
X95489122Y-105082419D01*
X95489122Y-105082419D02*
X95822455Y-105082419D01*
X95822455Y-105082419D02*
X95917693Y-105130038D01*
X95917693Y-105130038D02*
X95965312Y-105177657D01*
X95965312Y-105177657D02*
X96012931Y-105272895D01*
X96012931Y-105272895D02*
X96012931Y-105368133D01*
X96012931Y-105368133D02*
X95965312Y-105463371D01*
X95965312Y-105463371D02*
X95917693Y-105510990D01*
X95917693Y-105510990D02*
X95822455Y-105558609D01*
X95822455Y-105558609D02*
X95489122Y-105558609D01*
X93393884Y-118582419D02*
X93393884Y-117582419D01*
X93393884Y-117582419D02*
X93727217Y-118296704D01*
X93727217Y-118296704D02*
X94060550Y-117582419D01*
X94060550Y-117582419D02*
X94060550Y-118582419D01*
X95060550Y-118582419D02*
X94489122Y-118582419D01*
X94774836Y-118582419D02*
X94774836Y-117582419D01*
X94774836Y-117582419D02*
X94679598Y-117725276D01*
X94679598Y-117725276D02*
X94584360Y-117820514D01*
X94584360Y-117820514D02*
X94489122Y-117868133D01*
X95441503Y-118296704D02*
X95917693Y-118296704D01*
X95346265Y-118582419D02*
X95679598Y-117582419D01*
X95679598Y-117582419D02*
X96012931Y-118582419D01*
X93917693Y-110130038D02*
X93822455Y-110082419D01*
X93822455Y-110082419D02*
X93679598Y-110082419D01*
X93679598Y-110082419D02*
X93536741Y-110130038D01*
X93536741Y-110130038D02*
X93441503Y-110225276D01*
X93441503Y-110225276D02*
X93393884Y-110320514D01*
X93393884Y-110320514D02*
X93346265Y-110510990D01*
X93346265Y-110510990D02*
X93346265Y-110653847D01*
X93346265Y-110653847D02*
X93393884Y-110844323D01*
X93393884Y-110844323D02*
X93441503Y-110939561D01*
X93441503Y-110939561D02*
X93536741Y-111034800D01*
X93536741Y-111034800D02*
X93679598Y-111082419D01*
X93679598Y-111082419D02*
X93774836Y-111082419D01*
X93774836Y-111082419D02*
X93917693Y-111034800D01*
X93917693Y-111034800D02*
X93965312Y-110987180D01*
X93965312Y-110987180D02*
X93965312Y-110653847D01*
X93965312Y-110653847D02*
X93774836Y-110653847D01*
X94393884Y-111082419D02*
X94393884Y-110082419D01*
X94393884Y-110082419D02*
X94965312Y-111082419D01*
X94965312Y-111082419D02*
X94965312Y-110082419D01*
X95441503Y-111082419D02*
X95441503Y-110082419D01*
X95441503Y-110082419D02*
X95679598Y-110082419D01*
X95679598Y-110082419D02*
X95822455Y-110130038D01*
X95822455Y-110130038D02*
X95917693Y-110225276D01*
X95917693Y-110225276D02*
X95965312Y-110320514D01*
X95965312Y-110320514D02*
X96012931Y-110510990D01*
X96012931Y-110510990D02*
X96012931Y-110653847D01*
X96012931Y-110653847D02*
X95965312Y-110844323D01*
X95965312Y-110844323D02*
X95917693Y-110939561D01*
X95917693Y-110939561D02*
X95822455Y-111034800D01*
X95822455Y-111034800D02*
X95679598Y-111082419D01*
X95679598Y-111082419D02*
X95441503Y-111082419D01*
X93870074Y-112582419D02*
X93393884Y-112582419D01*
X93393884Y-112582419D02*
X93346265Y-113058609D01*
X93346265Y-113058609D02*
X93393884Y-113010990D01*
X93393884Y-113010990D02*
X93489122Y-112963371D01*
X93489122Y-112963371D02*
X93727217Y-112963371D01*
X93727217Y-112963371D02*
X93822455Y-113010990D01*
X93822455Y-113010990D02*
X93870074Y-113058609D01*
X93870074Y-113058609D02*
X93917693Y-113153847D01*
X93917693Y-113153847D02*
X93917693Y-113391942D01*
X93917693Y-113391942D02*
X93870074Y-113487180D01*
X93870074Y-113487180D02*
X93822455Y-113534800D01*
X93822455Y-113534800D02*
X93727217Y-113582419D01*
X93727217Y-113582419D02*
X93489122Y-113582419D01*
X93489122Y-113582419D02*
X93393884Y-113534800D01*
X93393884Y-113534800D02*
X93346265Y-113487180D01*
X94203408Y-112582419D02*
X94536741Y-113582419D01*
X94536741Y-113582419D02*
X94870074Y-112582419D01*
X95393884Y-112582419D02*
X95584360Y-112582419D01*
X95584360Y-112582419D02*
X95679598Y-112630038D01*
X95679598Y-112630038D02*
X95774836Y-112725276D01*
X95774836Y-112725276D02*
X95822455Y-112915752D01*
X95822455Y-112915752D02*
X95822455Y-113249085D01*
X95822455Y-113249085D02*
X95774836Y-113439561D01*
X95774836Y-113439561D02*
X95679598Y-113534800D01*
X95679598Y-113534800D02*
X95584360Y-113582419D01*
X95584360Y-113582419D02*
X95393884Y-113582419D01*
X95393884Y-113582419D02*
X95298646Y-113534800D01*
X95298646Y-113534800D02*
X95203408Y-113439561D01*
X95203408Y-113439561D02*
X95155789Y-113249085D01*
X95155789Y-113249085D02*
X95155789Y-112915752D01*
X95155789Y-112915752D02*
X95203408Y-112725276D01*
X95203408Y-112725276D02*
X95298646Y-112630038D01*
X95298646Y-112630038D02*
X95393884Y-112582419D01*
X93393884Y-108582419D02*
X93393884Y-107582419D01*
X93393884Y-107582419D02*
X93727217Y-108296704D01*
X93727217Y-108296704D02*
X94060550Y-107582419D01*
X94060550Y-107582419D02*
X94060550Y-108582419D01*
X94489122Y-107677657D02*
X94536741Y-107630038D01*
X94536741Y-107630038D02*
X94631979Y-107582419D01*
X94631979Y-107582419D02*
X94870074Y-107582419D01*
X94870074Y-107582419D02*
X94965312Y-107630038D01*
X94965312Y-107630038D02*
X95012931Y-107677657D01*
X95012931Y-107677657D02*
X95060550Y-107772895D01*
X95060550Y-107772895D02*
X95060550Y-107868133D01*
X95060550Y-107868133D02*
X95012931Y-108010990D01*
X95012931Y-108010990D02*
X94441503Y-108582419D01*
X94441503Y-108582419D02*
X95060550Y-108582419D01*
X95441503Y-108296704D02*
X95917693Y-108296704D01*
X95346265Y-108582419D02*
X95679598Y-107582419D01*
X95679598Y-107582419D02*
X96012931Y-108582419D01*
X93393884Y-116082419D02*
X93393884Y-115082419D01*
X93393884Y-115082419D02*
X93727217Y-115796704D01*
X93727217Y-115796704D02*
X94060550Y-115082419D01*
X94060550Y-115082419D02*
X94060550Y-116082419D01*
X95060550Y-116082419D02*
X94489122Y-116082419D01*
X94774836Y-116082419D02*
X94774836Y-115082419D01*
X94774836Y-115082419D02*
X94679598Y-115225276D01*
X94679598Y-115225276D02*
X94584360Y-115320514D01*
X94584360Y-115320514D02*
X94489122Y-115368133D01*
X95822455Y-115558609D02*
X95965312Y-115606228D01*
X95965312Y-115606228D02*
X96012931Y-115653847D01*
X96012931Y-115653847D02*
X96060550Y-115749085D01*
X96060550Y-115749085D02*
X96060550Y-115891942D01*
X96060550Y-115891942D02*
X96012931Y-115987180D01*
X96012931Y-115987180D02*
X95965312Y-116034800D01*
X95965312Y-116034800D02*
X95870074Y-116082419D01*
X95870074Y-116082419D02*
X95489122Y-116082419D01*
X95489122Y-116082419D02*
X95489122Y-115082419D01*
X95489122Y-115082419D02*
X95822455Y-115082419D01*
X95822455Y-115082419D02*
X95917693Y-115130038D01*
X95917693Y-115130038D02*
X95965312Y-115177657D01*
X95965312Y-115177657D02*
X96012931Y-115272895D01*
X96012931Y-115272895D02*
X96012931Y-115368133D01*
X96012931Y-115368133D02*
X95965312Y-115463371D01*
X95965312Y-115463371D02*
X95917693Y-115510990D01*
X95917693Y-115510990D02*
X95822455Y-115558609D01*
X95822455Y-115558609D02*
X95489122Y-115558609D01*
D12*
X186651666Y-126376009D02*
X186318333Y-126376009D01*
X186318333Y-126899819D02*
X186318333Y-125899819D01*
X186318333Y-125899819D02*
X186794523Y-125899819D01*
X187699285Y-126899819D02*
X187127857Y-126899819D01*
X187413571Y-126899819D02*
X187413571Y-125899819D01*
X187413571Y-125899819D02*
X187318333Y-126042676D01*
X187318333Y-126042676D02*
X187223095Y-126137914D01*
X187223095Y-126137914D02*
X187127857Y-126185533D01*
X88666666Y-36304819D02*
X88333333Y-35828628D01*
X88095238Y-36304819D02*
X88095238Y-35304819D01*
X88095238Y-35304819D02*
X88476190Y-35304819D01*
X88476190Y-35304819D02*
X88571428Y-35352438D01*
X88571428Y-35352438D02*
X88619047Y-35400057D01*
X88619047Y-35400057D02*
X88666666Y-35495295D01*
X88666666Y-35495295D02*
X88666666Y-35638152D01*
X88666666Y-35638152D02*
X88619047Y-35733390D01*
X88619047Y-35733390D02*
X88571428Y-35781009D01*
X88571428Y-35781009D02*
X88476190Y-35828628D01*
X88476190Y-35828628D02*
X88095238Y-35828628D01*
X89095238Y-35781009D02*
X89428571Y-35781009D01*
X89571428Y-36304819D02*
X89095238Y-36304819D01*
X89095238Y-36304819D02*
X89095238Y-35304819D01*
X89095238Y-35304819D02*
X89571428Y-35304819D01*
X90333333Y-35781009D02*
X90000000Y-35781009D01*
X90000000Y-36304819D02*
X90000000Y-35304819D01*
X90000000Y-35304819D02*
X90476190Y-35304819D01*
X91000000Y-35304819D02*
X91000000Y-35542914D01*
X90761905Y-35447676D02*
X91000000Y-35542914D01*
X91000000Y-35542914D02*
X91238095Y-35447676D01*
X90857143Y-35733390D02*
X91000000Y-35542914D01*
X91000000Y-35542914D02*
X91142857Y-35733390D01*
X91761905Y-35304819D02*
X91761905Y-35542914D01*
X91523810Y-35447676D02*
X91761905Y-35542914D01*
X91761905Y-35542914D02*
X92000000Y-35447676D01*
X91619048Y-35733390D02*
X91761905Y-35542914D01*
X91761905Y-35542914D02*
X91904762Y-35733390D01*
X87274819Y-56458094D02*
X86274819Y-56458094D01*
X86274819Y-56458094D02*
X86274819Y-56219999D01*
X86274819Y-56219999D02*
X86322438Y-56077142D01*
X86322438Y-56077142D02*
X86417676Y-55981904D01*
X86417676Y-55981904D02*
X86512914Y-55934285D01*
X86512914Y-55934285D02*
X86703390Y-55886666D01*
X86703390Y-55886666D02*
X86846247Y-55886666D01*
X86846247Y-55886666D02*
X87036723Y-55934285D01*
X87036723Y-55934285D02*
X87131961Y-55981904D01*
X87131961Y-55981904D02*
X87227200Y-56077142D01*
X87227200Y-56077142D02*
X87274819Y-56219999D01*
X87274819Y-56219999D02*
X87274819Y-56458094D01*
X86274819Y-55553332D02*
X86274819Y-54934285D01*
X86274819Y-54934285D02*
X86655771Y-55267618D01*
X86655771Y-55267618D02*
X86655771Y-55124761D01*
X86655771Y-55124761D02*
X86703390Y-55029523D01*
X86703390Y-55029523D02*
X86751009Y-54981904D01*
X86751009Y-54981904D02*
X86846247Y-54934285D01*
X86846247Y-54934285D02*
X87084342Y-54934285D01*
X87084342Y-54934285D02*
X87179580Y-54981904D01*
X87179580Y-54981904D02*
X87227200Y-55029523D01*
X87227200Y-55029523D02*
X87274819Y-55124761D01*
X87274819Y-55124761D02*
X87274819Y-55410475D01*
X87274819Y-55410475D02*
X87227200Y-55505713D01*
X87227200Y-55505713D02*
X87179580Y-55553332D01*
X87274819Y-85678094D02*
X86274819Y-85678094D01*
X86274819Y-85678094D02*
X86274819Y-85439999D01*
X86274819Y-85439999D02*
X86322438Y-85297142D01*
X86322438Y-85297142D02*
X86417676Y-85201904D01*
X86417676Y-85201904D02*
X86512914Y-85154285D01*
X86512914Y-85154285D02*
X86703390Y-85106666D01*
X86703390Y-85106666D02*
X86846247Y-85106666D01*
X86846247Y-85106666D02*
X87036723Y-85154285D01*
X87036723Y-85154285D02*
X87131961Y-85201904D01*
X87131961Y-85201904D02*
X87227200Y-85297142D01*
X87227200Y-85297142D02*
X87274819Y-85439999D01*
X87274819Y-85439999D02*
X87274819Y-85678094D01*
X86274819Y-84249523D02*
X86274819Y-84439999D01*
X86274819Y-84439999D02*
X86322438Y-84535237D01*
X86322438Y-84535237D02*
X86370057Y-84582856D01*
X86370057Y-84582856D02*
X86512914Y-84678094D01*
X86512914Y-84678094D02*
X86703390Y-84725713D01*
X86703390Y-84725713D02*
X87084342Y-84725713D01*
X87084342Y-84725713D02*
X87179580Y-84678094D01*
X87179580Y-84678094D02*
X87227200Y-84630475D01*
X87227200Y-84630475D02*
X87274819Y-84535237D01*
X87274819Y-84535237D02*
X87274819Y-84344761D01*
X87274819Y-84344761D02*
X87227200Y-84249523D01*
X87227200Y-84249523D02*
X87179580Y-84201904D01*
X87179580Y-84201904D02*
X87084342Y-84154285D01*
X87084342Y-84154285D02*
X86846247Y-84154285D01*
X86846247Y-84154285D02*
X86751009Y-84201904D01*
X86751009Y-84201904D02*
X86703390Y-84249523D01*
X86703390Y-84249523D02*
X86655771Y-84344761D01*
X86655771Y-84344761D02*
X86655771Y-84535237D01*
X86655771Y-84535237D02*
X86703390Y-84630475D01*
X86703390Y-84630475D02*
X86751009Y-84678094D01*
X86751009Y-84678094D02*
X86846247Y-84725713D01*
X111256666Y-87499819D02*
X111256666Y-88214104D01*
X111256666Y-88214104D02*
X111209047Y-88356961D01*
X111209047Y-88356961D02*
X111113809Y-88452200D01*
X111113809Y-88452200D02*
X110970952Y-88499819D01*
X110970952Y-88499819D02*
X110875714Y-88499819D01*
X112161428Y-87833152D02*
X112161428Y-88499819D01*
X111923333Y-87452200D02*
X111685238Y-88166485D01*
X111685238Y-88166485D02*
X112304285Y-88166485D01*
X116627200Y-42243332D02*
X116674819Y-42100475D01*
X116674819Y-42100475D02*
X116674819Y-41862380D01*
X116674819Y-41862380D02*
X116627200Y-41767142D01*
X116627200Y-41767142D02*
X116579580Y-41719523D01*
X116579580Y-41719523D02*
X116484342Y-41671904D01*
X116484342Y-41671904D02*
X116389104Y-41671904D01*
X116389104Y-41671904D02*
X116293866Y-41719523D01*
X116293866Y-41719523D02*
X116246247Y-41767142D01*
X116246247Y-41767142D02*
X116198628Y-41862380D01*
X116198628Y-41862380D02*
X116151009Y-42052856D01*
X116151009Y-42052856D02*
X116103390Y-42148094D01*
X116103390Y-42148094D02*
X116055771Y-42195713D01*
X116055771Y-42195713D02*
X115960533Y-42243332D01*
X115960533Y-42243332D02*
X115865295Y-42243332D01*
X115865295Y-42243332D02*
X115770057Y-42195713D01*
X115770057Y-42195713D02*
X115722438Y-42148094D01*
X115722438Y-42148094D02*
X115674819Y-42052856D01*
X115674819Y-42052856D02*
X115674819Y-41814761D01*
X115674819Y-41814761D02*
X115722438Y-41671904D01*
X115674819Y-41338570D02*
X116674819Y-41100475D01*
X116674819Y-41100475D02*
X115960533Y-40909999D01*
X115960533Y-40909999D02*
X116674819Y-40719523D01*
X116674819Y-40719523D02*
X115674819Y-40481428D01*
X115674819Y-40195713D02*
X115674819Y-39576666D01*
X115674819Y-39576666D02*
X116055771Y-39909999D01*
X116055771Y-39909999D02*
X116055771Y-39767142D01*
X116055771Y-39767142D02*
X116103390Y-39671904D01*
X116103390Y-39671904D02*
X116151009Y-39624285D01*
X116151009Y-39624285D02*
X116246247Y-39576666D01*
X116246247Y-39576666D02*
X116484342Y-39576666D01*
X116484342Y-39576666D02*
X116579580Y-39624285D01*
X116579580Y-39624285D02*
X116627200Y-39671904D01*
X116627200Y-39671904D02*
X116674819Y-39767142D01*
X116674819Y-39767142D02*
X116674819Y-40052856D01*
X116674819Y-40052856D02*
X116627200Y-40148094D01*
X116627200Y-40148094D02*
X116579580Y-40195713D01*
X179666667Y-44407200D02*
X179809524Y-44454819D01*
X179809524Y-44454819D02*
X180047619Y-44454819D01*
X180047619Y-44454819D02*
X180142857Y-44407200D01*
X180142857Y-44407200D02*
X180190476Y-44359580D01*
X180190476Y-44359580D02*
X180238095Y-44264342D01*
X180238095Y-44264342D02*
X180238095Y-44169104D01*
X180238095Y-44169104D02*
X180190476Y-44073866D01*
X180190476Y-44073866D02*
X180142857Y-44026247D01*
X180142857Y-44026247D02*
X180047619Y-43978628D01*
X180047619Y-43978628D02*
X179857143Y-43931009D01*
X179857143Y-43931009D02*
X179761905Y-43883390D01*
X179761905Y-43883390D02*
X179714286Y-43835771D01*
X179714286Y-43835771D02*
X179666667Y-43740533D01*
X179666667Y-43740533D02*
X179666667Y-43645295D01*
X179666667Y-43645295D02*
X179714286Y-43550057D01*
X179714286Y-43550057D02*
X179761905Y-43502438D01*
X179761905Y-43502438D02*
X179857143Y-43454819D01*
X179857143Y-43454819D02*
X180095238Y-43454819D01*
X180095238Y-43454819D02*
X180238095Y-43502438D01*
X180571429Y-43454819D02*
X180809524Y-44454819D01*
X180809524Y-44454819D02*
X181000000Y-43740533D01*
X181000000Y-43740533D02*
X181190476Y-44454819D01*
X181190476Y-44454819D02*
X181428572Y-43454819D01*
X182238095Y-43788152D02*
X182238095Y-44454819D01*
X182000000Y-43407200D02*
X181761905Y-44121485D01*
X181761905Y-44121485D02*
X182380952Y-44121485D01*
X192494819Y-90983333D02*
X193209104Y-90983333D01*
X193209104Y-90983333D02*
X193351961Y-91030952D01*
X193351961Y-91030952D02*
X193447200Y-91126190D01*
X193447200Y-91126190D02*
X193494819Y-91269047D01*
X193494819Y-91269047D02*
X193494819Y-91364285D01*
X193494819Y-90459523D02*
X193494819Y-90269047D01*
X193494819Y-90269047D02*
X193447200Y-90173809D01*
X193447200Y-90173809D02*
X193399580Y-90126190D01*
X193399580Y-90126190D02*
X193256723Y-90030952D01*
X193256723Y-90030952D02*
X193066247Y-89983333D01*
X193066247Y-89983333D02*
X192685295Y-89983333D01*
X192685295Y-89983333D02*
X192590057Y-90030952D01*
X192590057Y-90030952D02*
X192542438Y-90078571D01*
X192542438Y-90078571D02*
X192494819Y-90173809D01*
X192494819Y-90173809D02*
X192494819Y-90364285D01*
X192494819Y-90364285D02*
X192542438Y-90459523D01*
X192542438Y-90459523D02*
X192590057Y-90507142D01*
X192590057Y-90507142D02*
X192685295Y-90554761D01*
X192685295Y-90554761D02*
X192923390Y-90554761D01*
X192923390Y-90554761D02*
X193018628Y-90507142D01*
X193018628Y-90507142D02*
X193066247Y-90459523D01*
X193066247Y-90459523D02*
X193113866Y-90364285D01*
X193113866Y-90364285D02*
X193113866Y-90173809D01*
X193113866Y-90173809D02*
X193066247Y-90078571D01*
X193066247Y-90078571D02*
X193018628Y-90030952D01*
X193018628Y-90030952D02*
X192923390Y-89983333D01*
X177833333Y-106859580D02*
X177785714Y-106907200D01*
X177785714Y-106907200D02*
X177642857Y-106954819D01*
X177642857Y-106954819D02*
X177547619Y-106954819D01*
X177547619Y-106954819D02*
X177404762Y-106907200D01*
X177404762Y-106907200D02*
X177309524Y-106811961D01*
X177309524Y-106811961D02*
X177261905Y-106716723D01*
X177261905Y-106716723D02*
X177214286Y-106526247D01*
X177214286Y-106526247D02*
X177214286Y-106383390D01*
X177214286Y-106383390D02*
X177261905Y-106192914D01*
X177261905Y-106192914D02*
X177309524Y-106097676D01*
X177309524Y-106097676D02*
X177404762Y-106002438D01*
X177404762Y-106002438D02*
X177547619Y-105954819D01*
X177547619Y-105954819D02*
X177642857Y-105954819D01*
X177642857Y-105954819D02*
X177785714Y-106002438D01*
X177785714Y-106002438D02*
X177833333Y-106050057D01*
X178214286Y-106050057D02*
X178261905Y-106002438D01*
X178261905Y-106002438D02*
X178357143Y-105954819D01*
X178357143Y-105954819D02*
X178595238Y-105954819D01*
X178595238Y-105954819D02*
X178690476Y-106002438D01*
X178690476Y-106002438D02*
X178738095Y-106050057D01*
X178738095Y-106050057D02*
X178785714Y-106145295D01*
X178785714Y-106145295D02*
X178785714Y-106240533D01*
X178785714Y-106240533D02*
X178738095Y-106383390D01*
X178738095Y-106383390D02*
X178166667Y-106954819D01*
X178166667Y-106954819D02*
X178785714Y-106954819D01*
X87274819Y-75558094D02*
X86274819Y-75558094D01*
X86274819Y-75558094D02*
X86274819Y-75319999D01*
X86274819Y-75319999D02*
X86322438Y-75177142D01*
X86322438Y-75177142D02*
X86417676Y-75081904D01*
X86417676Y-75081904D02*
X86512914Y-75034285D01*
X86512914Y-75034285D02*
X86703390Y-74986666D01*
X86703390Y-74986666D02*
X86846247Y-74986666D01*
X86846247Y-74986666D02*
X87036723Y-75034285D01*
X87036723Y-75034285D02*
X87131961Y-75081904D01*
X87131961Y-75081904D02*
X87227200Y-75177142D01*
X87227200Y-75177142D02*
X87274819Y-75319999D01*
X87274819Y-75319999D02*
X87274819Y-75558094D01*
X86274819Y-74081904D02*
X86274819Y-74558094D01*
X86274819Y-74558094D02*
X86751009Y-74605713D01*
X86751009Y-74605713D02*
X86703390Y-74558094D01*
X86703390Y-74558094D02*
X86655771Y-74462856D01*
X86655771Y-74462856D02*
X86655771Y-74224761D01*
X86655771Y-74224761D02*
X86703390Y-74129523D01*
X86703390Y-74129523D02*
X86751009Y-74081904D01*
X86751009Y-74081904D02*
X86846247Y-74034285D01*
X86846247Y-74034285D02*
X87084342Y-74034285D01*
X87084342Y-74034285D02*
X87179580Y-74081904D01*
X87179580Y-74081904D02*
X87227200Y-74129523D01*
X87227200Y-74129523D02*
X87274819Y-74224761D01*
X87274819Y-74224761D02*
X87274819Y-74462856D01*
X87274819Y-74462856D02*
X87227200Y-74558094D01*
X87227200Y-74558094D02*
X87179580Y-74605713D01*
X126416666Y-87499819D02*
X126416666Y-88214104D01*
X126416666Y-88214104D02*
X126369047Y-88356961D01*
X126369047Y-88356961D02*
X126273809Y-88452200D01*
X126273809Y-88452200D02*
X126130952Y-88499819D01*
X126130952Y-88499819D02*
X126035714Y-88499819D01*
X127369047Y-87499819D02*
X126892857Y-87499819D01*
X126892857Y-87499819D02*
X126845238Y-87976009D01*
X126845238Y-87976009D02*
X126892857Y-87928390D01*
X126892857Y-87928390D02*
X126988095Y-87880771D01*
X126988095Y-87880771D02*
X127226190Y-87880771D01*
X127226190Y-87880771D02*
X127321428Y-87928390D01*
X127321428Y-87928390D02*
X127369047Y-87976009D01*
X127369047Y-87976009D02*
X127416666Y-88071247D01*
X127416666Y-88071247D02*
X127416666Y-88309342D01*
X127416666Y-88309342D02*
X127369047Y-88404580D01*
X127369047Y-88404580D02*
X127321428Y-88452200D01*
X127321428Y-88452200D02*
X127226190Y-88499819D01*
X127226190Y-88499819D02*
X126988095Y-88499819D01*
X126988095Y-88499819D02*
X126892857Y-88452200D01*
X126892857Y-88452200D02*
X126845238Y-88404580D01*
X87274819Y-65638094D02*
X86274819Y-65638094D01*
X86274819Y-65638094D02*
X86274819Y-65399999D01*
X86274819Y-65399999D02*
X86322438Y-65257142D01*
X86322438Y-65257142D02*
X86417676Y-65161904D01*
X86417676Y-65161904D02*
X86512914Y-65114285D01*
X86512914Y-65114285D02*
X86703390Y-65066666D01*
X86703390Y-65066666D02*
X86846247Y-65066666D01*
X86846247Y-65066666D02*
X87036723Y-65114285D01*
X87036723Y-65114285D02*
X87131961Y-65161904D01*
X87131961Y-65161904D02*
X87227200Y-65257142D01*
X87227200Y-65257142D02*
X87274819Y-65399999D01*
X87274819Y-65399999D02*
X87274819Y-65638094D01*
X86608152Y-64209523D02*
X87274819Y-64209523D01*
X86227200Y-64447618D02*
X86941485Y-64685713D01*
X86941485Y-64685713D02*
X86941485Y-64066666D01*
X192494819Y-97333333D02*
X193209104Y-97333333D01*
X193209104Y-97333333D02*
X193351961Y-97380952D01*
X193351961Y-97380952D02*
X193447200Y-97476190D01*
X193447200Y-97476190D02*
X193494819Y-97619047D01*
X193494819Y-97619047D02*
X193494819Y-97714285D01*
X192494819Y-96428571D02*
X192494819Y-96619047D01*
X192494819Y-96619047D02*
X192542438Y-96714285D01*
X192542438Y-96714285D02*
X192590057Y-96761904D01*
X192590057Y-96761904D02*
X192732914Y-96857142D01*
X192732914Y-96857142D02*
X192923390Y-96904761D01*
X192923390Y-96904761D02*
X193304342Y-96904761D01*
X193304342Y-96904761D02*
X193399580Y-96857142D01*
X193399580Y-96857142D02*
X193447200Y-96809523D01*
X193447200Y-96809523D02*
X193494819Y-96714285D01*
X193494819Y-96714285D02*
X193494819Y-96523809D01*
X193494819Y-96523809D02*
X193447200Y-96428571D01*
X193447200Y-96428571D02*
X193399580Y-96380952D01*
X193399580Y-96380952D02*
X193304342Y-96333333D01*
X193304342Y-96333333D02*
X193066247Y-96333333D01*
X193066247Y-96333333D02*
X192971009Y-96380952D01*
X192971009Y-96380952D02*
X192923390Y-96428571D01*
X192923390Y-96428571D02*
X192875771Y-96523809D01*
X192875771Y-96523809D02*
X192875771Y-96714285D01*
X192875771Y-96714285D02*
X192923390Y-96809523D01*
X192923390Y-96809523D02*
X192971009Y-96857142D01*
X192971009Y-96857142D02*
X193066247Y-96904761D01*
X165833333Y-104859580D02*
X165785714Y-104907200D01*
X165785714Y-104907200D02*
X165642857Y-104954819D01*
X165642857Y-104954819D02*
X165547619Y-104954819D01*
X165547619Y-104954819D02*
X165404762Y-104907200D01*
X165404762Y-104907200D02*
X165309524Y-104811961D01*
X165309524Y-104811961D02*
X165261905Y-104716723D01*
X165261905Y-104716723D02*
X165214286Y-104526247D01*
X165214286Y-104526247D02*
X165214286Y-104383390D01*
X165214286Y-104383390D02*
X165261905Y-104192914D01*
X165261905Y-104192914D02*
X165309524Y-104097676D01*
X165309524Y-104097676D02*
X165404762Y-104002438D01*
X165404762Y-104002438D02*
X165547619Y-103954819D01*
X165547619Y-103954819D02*
X165642857Y-103954819D01*
X165642857Y-103954819D02*
X165785714Y-104002438D01*
X165785714Y-104002438D02*
X165833333Y-104050057D01*
X166785714Y-104954819D02*
X166214286Y-104954819D01*
X166500000Y-104954819D02*
X166500000Y-103954819D01*
X166500000Y-103954819D02*
X166404762Y-104097676D01*
X166404762Y-104097676D02*
X166309524Y-104192914D01*
X166309524Y-104192914D02*
X166214286Y-104240533D01*
X198666666Y-36304819D02*
X198333333Y-35828628D01*
X198095238Y-36304819D02*
X198095238Y-35304819D01*
X198095238Y-35304819D02*
X198476190Y-35304819D01*
X198476190Y-35304819D02*
X198571428Y-35352438D01*
X198571428Y-35352438D02*
X198619047Y-35400057D01*
X198619047Y-35400057D02*
X198666666Y-35495295D01*
X198666666Y-35495295D02*
X198666666Y-35638152D01*
X198666666Y-35638152D02*
X198619047Y-35733390D01*
X198619047Y-35733390D02*
X198571428Y-35781009D01*
X198571428Y-35781009D02*
X198476190Y-35828628D01*
X198476190Y-35828628D02*
X198095238Y-35828628D01*
X199095238Y-35781009D02*
X199428571Y-35781009D01*
X199571428Y-36304819D02*
X199095238Y-36304819D01*
X199095238Y-36304819D02*
X199095238Y-35304819D01*
X199095238Y-35304819D02*
X199571428Y-35304819D01*
X200333333Y-35781009D02*
X200000000Y-35781009D01*
X200000000Y-36304819D02*
X200000000Y-35304819D01*
X200000000Y-35304819D02*
X200476190Y-35304819D01*
X201000000Y-35304819D02*
X201000000Y-35542914D01*
X200761905Y-35447676D02*
X201000000Y-35542914D01*
X201000000Y-35542914D02*
X201238095Y-35447676D01*
X200857143Y-35733390D02*
X201000000Y-35542914D01*
X201000000Y-35542914D02*
X201142857Y-35733390D01*
X201761905Y-35304819D02*
X201761905Y-35542914D01*
X201523810Y-35447676D02*
X201761905Y-35542914D01*
X201761905Y-35542914D02*
X202000000Y-35447676D01*
X201619048Y-35733390D02*
X201761905Y-35542914D01*
X201761905Y-35542914D02*
X201904762Y-35733390D01*
X192494819Y-82093333D02*
X193209104Y-82093333D01*
X193209104Y-82093333D02*
X193351961Y-82140952D01*
X193351961Y-82140952D02*
X193447200Y-82236190D01*
X193447200Y-82236190D02*
X193494819Y-82379047D01*
X193494819Y-82379047D02*
X193494819Y-82474285D01*
X192494819Y-81712380D02*
X192494819Y-81045714D01*
X192494819Y-81045714D02*
X193494819Y-81474285D01*
X153940895Y-55489160D02*
X153940895Y-55965350D01*
X153655180Y-55393922D02*
X154655180Y-55727255D01*
X154655180Y-55727255D02*
X153655180Y-56060588D01*
X153655180Y-56917731D02*
X153655180Y-56346303D01*
X153655180Y-56632017D02*
X154655180Y-56632017D01*
X154655180Y-56632017D02*
X154512323Y-56536779D01*
X154512323Y-56536779D02*
X154417085Y-56441541D01*
X154417085Y-56441541D02*
X154369466Y-56346303D01*
D14*
%TO.C,XT60*%
X204890000Y-101868000D02*
X190580000Y-101868000D01*
X204890000Y-101868000D02*
X204890000Y-117588000D01*
X186470000Y-108438000D02*
X186470000Y-112178000D01*
X204890000Y-117588000D02*
X190580000Y-117588000D01*
X187057042Y-103861194D02*
G75*
G02*
X190580000Y-101868000I3522957J-2116805D01*
G01*
X190580000Y-117588000D02*
G75*
G02*
X186649587Y-114679648I0J4110000D01*
G01*
%TO.C,R1*%
X97577064Y-55055000D02*
X97122936Y-55055000D01*
X97577064Y-56525000D02*
X97122936Y-56525000D01*
%TO.C,R4*%
X97577064Y-84265000D02*
X97122936Y-84265000D01*
X97577064Y-85735000D02*
X97122936Y-85735000D01*
D15*
%TO.C,SW1*%
X146575000Y-118700000D02*
X159425000Y-118700000D01*
X146575000Y-120250000D02*
X146575000Y-118700000D01*
X146575000Y-125300000D02*
X146575000Y-123750000D01*
X159425000Y-118700000D02*
X159425000Y-120250000D01*
X159425000Y-123750000D02*
X159425000Y-125300000D01*
X159425000Y-125300000D02*
X146575000Y-125300000D01*
D16*
X145800000Y-121900000D02*
G75*
G02*
X145600000Y-121900000I-100000J0D01*
G01*
X145600000Y-121900000D02*
G75*
G02*
X145800000Y-121900000I100000J0D01*
G01*
D14*
%TO.C,R2*%
X97577064Y-64265000D02*
X97122936Y-64265000D01*
X97577064Y-65735000D02*
X97122936Y-65735000D01*
D17*
%TO.C,D1*%
X161739400Y-120095000D02*
X166260600Y-120095000D01*
X161739400Y-123905000D02*
X166260600Y-123905000D01*
D18*
X163170000Y-122000000D02*
X164193000Y-123000000D01*
X164193000Y-121000000D02*
X163170000Y-122000000D01*
X164193000Y-123000000D02*
X164193000Y-121000000D01*
D14*
%TO.C,J2*%
X146387500Y-106000000D02*
X156877500Y-106000000D01*
X146387500Y-108360000D02*
X146387500Y-106000000D01*
X146387500Y-117000000D02*
X146387500Y-108960000D01*
X147507500Y-106000000D02*
X147507500Y-117000000D01*
X155257500Y-106000000D02*
X155257500Y-117000000D01*
X156877500Y-106000000D02*
X156877500Y-117000000D01*
X156877500Y-117000000D02*
X146387500Y-117000000D01*
X146387500Y-108660000D02*
X145777500Y-109100000D01*
X145777500Y-108220000D01*
X146387500Y-108660000D01*
G36*
X146387500Y-108660000D02*
G01*
X145777500Y-109100000D01*
X145777500Y-108220000D01*
X146387500Y-108660000D01*
G37*
%TO.C,J10*%
X194040000Y-70440000D02*
X194040000Y-69060000D01*
X195420000Y-70440000D02*
X194040000Y-70440000D01*
X196690000Y-67680000D02*
X201880000Y-67680000D01*
X196690000Y-70440000D02*
X196690000Y-67680000D01*
X196690000Y-70440000D02*
X201880000Y-70440000D01*
X201880000Y-70440000D02*
X201880000Y-67680000D01*
%TO.C,J3*%
X195725000Y-55350000D02*
X195725000Y-56600000D01*
X195725000Y-56600000D02*
X196975000Y-56600000D01*
X198275000Y-48700000D02*
X198275000Y-49450000D01*
X198275000Y-49450000D02*
X201225000Y-49450000D01*
X198275000Y-55550000D02*
X201225000Y-55550000D01*
X198275000Y-56300000D02*
X198275000Y-55550000D01*
X201225000Y-49450000D02*
X201225000Y-52500000D01*
X201225000Y-55550000D02*
X201225000Y-52500000D01*
X196015000Y-56310000D02*
X201985000Y-56310000D01*
X201985000Y-48690000D01*
X196015000Y-48690000D01*
X196015000Y-56310000D01*
X196025000Y-50500000D02*
X196775000Y-50500000D01*
X196775000Y-48700000D01*
X196025000Y-48700000D01*
X196025000Y-50500000D01*
X196025000Y-53000000D02*
X196775000Y-53000000D01*
X196775000Y-52000000D01*
X196025000Y-52000000D01*
X196025000Y-53000000D01*
X196025000Y-56300000D02*
X196775000Y-56300000D01*
X196775000Y-54500000D01*
X196025000Y-54500000D01*
X196025000Y-56300000D01*
%TO.C,R3*%
X97577064Y-74105000D02*
X97122936Y-74105000D01*
X97577064Y-75575000D02*
X97122936Y-75575000D01*
%TO.C,J8*%
X194040000Y-76790000D02*
X194040000Y-75410000D01*
X195420000Y-76790000D02*
X194040000Y-76790000D01*
X196690000Y-74030000D02*
X201880000Y-74030000D01*
X196690000Y-76790000D02*
X196690000Y-74030000D01*
X196690000Y-76790000D02*
X201880000Y-76790000D01*
X201880000Y-76790000D02*
X201880000Y-74030000D01*
%TO.C,SW2*%
X104500000Y-40250000D02*
X104500000Y-41750000D01*
X105750000Y-44250000D02*
X110250000Y-44250000D01*
X110250000Y-37750000D02*
X105750000Y-37750000D01*
X111500000Y-41750000D02*
X111500000Y-40250000D01*
%TO.C,U1*%
D13*
X135720000Y-132540000D02*
X87460000Y-132540000D01*
X87460000Y-90880000D01*
X135720000Y-90880000D01*
X135720000Y-132540000D01*
D15*
%TO.C,F1*%
X170095000Y-118635000D02*
X170095000Y-125365000D01*
X170095000Y-125365000D02*
X189905000Y-125365000D01*
X189905000Y-118635000D02*
X170095000Y-118635000D01*
X189905000Y-125365000D02*
X189905000Y-118635000D01*
D14*
%TO.C,D3*%
X88170000Y-54245000D02*
X88170000Y-57335000D01*
X88170000Y-54245170D02*
G75*
G02*
X93720000Y-55790000I2560000J-1544830D01*
G01*
X93720000Y-55790000D02*
G75*
G02*
X88170000Y-57334830I-2990000J0D01*
G01*
X93230000Y-55790000D02*
G75*
G02*
X88230000Y-55790000I-2500000J0D01*
G01*
X88230000Y-55790000D02*
G75*
G02*
X93230000Y-55790000I2500000J0D01*
G01*
%TO.C,D6*%
X88170000Y-83455000D02*
X88170000Y-86545000D01*
X88170000Y-83455170D02*
G75*
G02*
X93720000Y-85000000I2560000J-1544830D01*
G01*
X93720000Y-85000000D02*
G75*
G02*
X88170000Y-86544830I-2990000J0D01*
G01*
X93230000Y-85000000D02*
G75*
G02*
X88230000Y-85000000I-2500000J0D01*
G01*
X88230000Y-85000000D02*
G75*
G02*
X93230000Y-85000000I2500000J0D01*
G01*
%TO.C,J4*%
X104870000Y-80225000D02*
X104870000Y-81475000D01*
X105170000Y-82775000D02*
X105920000Y-82775000D01*
X105920000Y-82775000D02*
X105920000Y-85725000D01*
X105920000Y-85725000D02*
X111470000Y-85725000D01*
X106120000Y-80225000D02*
X104870000Y-80225000D01*
X117020000Y-82775000D02*
X117020000Y-85725000D01*
X117020000Y-85725000D02*
X111470000Y-85725000D01*
X117770000Y-82775000D02*
X117020000Y-82775000D01*
X105160000Y-80515000D02*
X117780000Y-80515000D01*
X117780000Y-86485000D01*
X105160000Y-86485000D01*
X105160000Y-80515000D01*
X105170000Y-80525000D02*
X106970000Y-80525000D01*
X106970000Y-81275000D01*
X105170000Y-81275000D01*
X105170000Y-80525000D01*
X108470000Y-80525000D02*
X114470000Y-80525000D01*
X114470000Y-81275000D01*
X108470000Y-81275000D01*
X108470000Y-80525000D01*
X115970000Y-80525000D02*
X117770000Y-80525000D01*
X117770000Y-81275000D01*
X115970000Y-81275000D01*
X115970000Y-80525000D01*
%TO.C,SW3*%
X118500000Y-40250000D02*
X118500000Y-41750000D01*
X119750000Y-44250000D02*
X124250000Y-44250000D01*
X124250000Y-37750000D02*
X119750000Y-37750000D01*
X125500000Y-41750000D02*
X125500000Y-40250000D01*
D15*
%TO.C,SW4*%
X174575000Y-36200000D02*
X187425000Y-36200000D01*
X174575000Y-37750000D02*
X174575000Y-36200000D01*
X174575000Y-42800000D02*
X174575000Y-41250000D01*
X187425000Y-36200000D02*
X187425000Y-37750000D01*
X187425000Y-41250000D02*
X187425000Y-42800000D01*
X187425000Y-42800000D02*
X174575000Y-42800000D01*
D16*
X188400000Y-39600000D02*
G75*
G02*
X188200000Y-39600000I-100000J0D01*
G01*
X188200000Y-39600000D02*
G75*
G02*
X188400000Y-39600000I100000J0D01*
G01*
D14*
%TO.C,J9*%
X194040000Y-92030000D02*
X194040000Y-90650000D01*
X195420000Y-92030000D02*
X194040000Y-92030000D01*
X196690000Y-89270000D02*
X201880000Y-89270000D01*
X196690000Y-92030000D02*
X196690000Y-89270000D01*
X196690000Y-92030000D02*
X201880000Y-92030000D01*
X201880000Y-92030000D02*
X201880000Y-89270000D01*
D15*
%TO.C,C2*%
X176095000Y-108460000D02*
X177021000Y-108460000D01*
X176095000Y-113540000D02*
X176095000Y-108460000D01*
X177021000Y-113540000D02*
X176095000Y-113540000D01*
X179905000Y-108460000D02*
X178979000Y-108460000D01*
X179905000Y-108460000D02*
X179905000Y-113540000D01*
X179905000Y-113540000D02*
X178979000Y-113540000D01*
D14*
%TO.C,D5*%
X88170000Y-73295000D02*
X88170000Y-76385000D01*
X88170000Y-73295170D02*
G75*
G02*
X93720000Y-74840000I2560000J-1544830D01*
G01*
X93720000Y-74840000D02*
G75*
G02*
X88170000Y-76384830I-2990000J0D01*
G01*
X93230000Y-74840000D02*
G75*
G02*
X88230000Y-74840000I-2500000J0D01*
G01*
X88230000Y-74840000D02*
G75*
G02*
X93230000Y-74840000I2500000J0D01*
G01*
%TO.C,J5*%
X120150000Y-80225000D02*
X120150000Y-81475000D01*
X120450000Y-82775000D02*
X121200000Y-82775000D01*
X121200000Y-82775000D02*
X121200000Y-85725000D01*
X121200000Y-85725000D02*
X126750000Y-85725000D01*
X121400000Y-80225000D02*
X120150000Y-80225000D01*
X132300000Y-82775000D02*
X132300000Y-85725000D01*
X132300000Y-85725000D02*
X126750000Y-85725000D01*
X133050000Y-82775000D02*
X132300000Y-82775000D01*
X120440000Y-80515000D02*
X133060000Y-80515000D01*
X133060000Y-86485000D01*
X120440000Y-86485000D01*
X120440000Y-80515000D01*
X120450000Y-80525000D02*
X122250000Y-80525000D01*
X122250000Y-81275000D01*
X120450000Y-81275000D01*
X120450000Y-80525000D01*
X123750000Y-80525000D02*
X129750000Y-80525000D01*
X129750000Y-81275000D01*
X123750000Y-81275000D01*
X123750000Y-80525000D01*
X131250000Y-80525000D02*
X133050000Y-80525000D01*
X133050000Y-81275000D01*
X131250000Y-81275000D01*
X131250000Y-80525000D01*
%TO.C,D4*%
X88170000Y-63435000D02*
X88170000Y-66525000D01*
X88170000Y-63435170D02*
G75*
G02*
X93720000Y-64980000I2560000J-1544830D01*
G01*
X93720000Y-64980000D02*
G75*
G02*
X88170000Y-66524830I-2990000J0D01*
G01*
X93230000Y-64980000D02*
G75*
G02*
X88230000Y-64980000I-2500000J0D01*
G01*
X88230000Y-64980000D02*
G75*
G02*
X93230000Y-64980000I2500000J0D01*
G01*
%TO.C,J6*%
X194040000Y-98380000D02*
X194040000Y-97000000D01*
X195420000Y-98380000D02*
X194040000Y-98380000D01*
X196690000Y-95620000D02*
X201880000Y-95620000D01*
X196690000Y-98380000D02*
X196690000Y-95620000D01*
X196690000Y-98380000D02*
X201880000Y-98380000D01*
X201880000Y-98380000D02*
X201880000Y-95620000D01*
D11*
%TO.C,C1*%
X165365000Y-117134100D02*
X166635000Y-117134100D01*
X166000000Y-117769100D02*
X166000000Y-116499100D01*
X171372100Y-111000000D02*
G75*
G02*
X160627900Y-111000000I-5372100J0D01*
G01*
X160627900Y-111000000D02*
G75*
G02*
X171372100Y-111000000I5372100J0D01*
G01*
D14*
%TO.C,J7*%
X194040000Y-83140000D02*
X194040000Y-81760000D01*
X195420000Y-83140000D02*
X194040000Y-83140000D01*
X196690000Y-80380000D02*
X201880000Y-80380000D01*
X196690000Y-83140000D02*
X196690000Y-80380000D01*
X196690000Y-83140000D02*
X201880000Y-83140000D01*
X201880000Y-83140000D02*
X201880000Y-80380000D01*
%TO.C,A1*%
X143180000Y-38220000D02*
X143180000Y-36620000D01*
X143500000Y-36550000D02*
X143500000Y-86550000D01*
X143840000Y-36003000D02*
X143840000Y-87097000D01*
X144110000Y-35940000D02*
X146600000Y-35940000D01*
X144110000Y-87160000D02*
X147947939Y-87160000D01*
X146600000Y-35940000D02*
X146600000Y-36853520D01*
X146600000Y-35940000D02*
X147947940Y-35940000D01*
X146600000Y-39246480D02*
X146600000Y-83853520D01*
X146600000Y-86246480D02*
X146600000Y-87160000D01*
X148872061Y-35940000D02*
X149875000Y-35940000D01*
X149875000Y-35940000D02*
X158345000Y-35940000D01*
X150000000Y-34640000D02*
X150000000Y-35460000D01*
X150000000Y-34640000D02*
X158220000Y-34640000D01*
X150000000Y-35460000D02*
X150210000Y-35460000D01*
X150210000Y-35460000D02*
X150210000Y-36856000D01*
X150210000Y-39244000D02*
X150210000Y-40460000D01*
X150510000Y-87160000D02*
X148872061Y-87160000D01*
X157710000Y-87160000D02*
X150510000Y-87160000D01*
X158010000Y-35460000D02*
X158010000Y-36856000D01*
X158010000Y-39244000D02*
X158010000Y-40460000D01*
X158010000Y-40460000D02*
X150210000Y-40460000D01*
X158220000Y-34640000D02*
X158220000Y-35460000D01*
X158220000Y-35460000D02*
X158010000Y-35460000D01*
X158345000Y-35940000D02*
X159347939Y-35940000D01*
X159347939Y-87160000D02*
X157710000Y-87160000D01*
X160272061Y-35940000D02*
X161620000Y-35940000D01*
X160272061Y-87160000D02*
X164110000Y-87160000D01*
X161620000Y-35940000D02*
X161620000Y-36853520D01*
X161620000Y-39246480D02*
X161620000Y-83853520D01*
X161620000Y-86246480D02*
X161620000Y-87160000D01*
X164110000Y-35940000D02*
X161620000Y-35940000D01*
X164380000Y-87097000D02*
X164380000Y-36003000D01*
X164720000Y-36550000D02*
X164720000Y-86550000D01*
X143500000Y-36550000D02*
G75*
G02*
X144110000Y-35940000I610000J0D01*
G01*
X144110000Y-87160000D02*
G75*
G02*
X143500000Y-86550000I-99J609901D01*
G01*
X164110000Y-35940000D02*
G75*
G02*
X164720000Y-36550000I0J-610000D01*
G01*
X164720000Y-86550000D02*
G75*
G02*
X164110000Y-87160000I-610000J0D01*
G01*
%TD*%
M02*
